<svg width="64" height="64" viewBox="0 0 64 64" fill="none" xmlns="http://www.w3.org/2000/svg">
<g id="Layer_1" clip-path="url(#clip0_13_674)">
<g id="Group">
<path id="Vector" d="M29.8001 18.1275V12.7871H57.7124V22.5995L60.478 19.9011V12.7873V5.74609H57.7122H29.7998H27.0342V12.7873V14.1717C27.9894 15.0419 28.9763 16.301 29.8001 18.1275ZM43.7561 8.03969C44.5199 8.03969 45.1389 8.6439 45.1389 9.38886C45.1389 10.1338 44.5199 10.738 43.7561 10.738C42.9923 10.738 42.3733 10.1338 42.3733 9.38886C42.3733 8.6439 42.9923 8.03969 43.7561 8.03969Z" fill="#3062C8"/>
<path id="Vector_2" d="M57.7125 50.5389H29.8001V40.7208C29.2742 40.9819 28.6808 41.13 28.054 41.1305C27.983 41.1305 27.9117 41.1274 27.839 41.1242C27.5627 41.1084 27.2937 41.0641 27.0342 40.9956V50.5389V53.2372H29.7998H57.7122H60.478V50.5389V26.0059L57.7124 28.7043L57.7125 50.5389Z" fill="#3062C8"/>
<path id="Vector_3" d="M51.1576 45.1413C50.2307 45.1413 49.3791 44.8211 48.7117 44.2891L47.1475 47.106L48.9775 46.6016L49.5117 48.3555L51.157 45.3924L52.8029 48.3555L53.3371 46.6016L55.1672 47.106L53.6029 44.2891C52.9355 44.8211 52.0842 45.1413 51.1576 45.1413Z" fill="#FFD700"/>
<path id="Vector_4" d="M51.1576 44.603C52.9905 44.603 54.4763 43.1533 54.4763 41.365C54.4763 39.5767 52.9905 38.127 51.1576 38.127C49.3247 38.127 47.8389 39.5767 47.8389 41.365C47.8389 43.1533 49.3247 44.603 51.1576 44.603Z" fill="#FFD700"/>
<path id="Vector_5" d="M53.195 18.4297H34.8037V19.8192H53.195V18.4297Z" fill="black"/>
<path id="Vector_6" d="M53.195 21.8496H34.8037V23.2388H53.195V21.8496Z" fill="black"/>
<path id="Vector_7" d="M53.195 25.2695H34.8037V26.6587H53.195V25.2695Z" fill="black"/>
<path id="Vector_8" d="M42.4091 40.9199H34.8037V42.3091H42.4091V40.9199Z" fill="black"/>
<path id="Vector_9" d="M42.4091 43.6172H34.8037V45.0064H42.4091V43.6172Z" fill="black"/>
<path id="Vector_10" d="M44.3467 38.6929L47.1825 37.8344L64.0003 21.4257L62.0447 19.5176L45.2269 35.9266L44.3467 38.6929Z" fill="black"/>
<path id="Vector_11" d="M15.9528 36.3065H17.2348V60.6643C17.2348 62.5078 18.7662 64.0009 20.6546 64.0009C22.5424 64.0009 24.0737 62.5078 24.0737 60.6643V34.2205V29.1106V20.1886C25.0328 22.1044 26.0091 25.7751 26 32.3096C26 33.7979 25.9508 35.4322 25.8428 37.2264C25.7709 38.4167 26.7016 39.4386 27.9218 39.5081C27.9661 39.5102 28.0099 39.5118 28.0534 39.5118C29.2161 39.5113 30.191 38.6264 30.2602 37.4791C30.3725 35.6082 30.4244 33.8901 30.4244 32.3096C30.4211 26.1956 29.6584 22.1465 28.5225 19.3454C27.4006 16.5556 25.7969 14.9811 24.3093 14.2612C23.3645 13.7969 22.5354 13.6918 22.0357 13.6857C22.0028 13.6844 21.9698 13.681 21.9363 13.681H14.5913C14.5924 13.74 14.5935 13.8094 14.5938 13.8986C14.5894 14.9555 14.47 18.0823 13.0981 21.663L11.5664 21.0337C12.8142 17.7348 12.9379 14.8303 12.9344 13.8986C12.9344 13.8014 12.9333 13.7312 12.932 13.681H11.2513C11.1189 13.681 10.9901 13.6944 10.8643 13.7168L10.8645 13.7192C10.0108 13.8131 9.26996 14.1395 8.62179 14.5571C7.8569 15.056 7.19684 15.7069 6.62643 16.4758C5.49588 18.0102 4.71158 20.05 4.70727 22.3694C4.70456 24.1057 5.16962 25.988 6.24832 27.793C7.32433 29.6007 8.9934 31.3204 11.3301 32.8445C11.7077 33.0912 12.1355 33.2097 12.5584 33.2097C13.272 33.2097 13.9726 32.873 14.3993 32.2511C15.0788 31.2603 14.8066 29.9195 13.7905 29.2565C11.9162 28.0312 10.7651 26.7827 10.0737 25.6233C9.38501 24.4607 9.13492 23.3766 9.13223 22.3694C9.13116 21.4287 9.36341 20.5517 9.71857 19.825C10.0678 19.1003 10.5528 18.5359 10.9331 18.2503C11.0509 18.158 11.1516 18.0996 11.2283 18.0617L11.2793 18.6711C10.9904 18.8885 10.5469 19.3749 10.219 20.0548C9.86847 20.7726 9.68453 21.5715 9.68536 22.3689C9.68696 22.8996 9.76503 23.4162 9.91816 23.9268L10.905 21.6406L19.4757 25.1616L14.8706 35.829L6.3007 32.3085L7.25785 30.0908C6.68664 29.4415 6.18781 28.7659 5.76945 28.0639C4.70967 26.2889 4.15113 24.3194 4.15464 22.3684C4.15788 20.1317 4.87683 17.9267 6.17699 16.1606C6.8052 15.3137 7.52415 14.6241 8.31439 14.1084C9.10167 13.6009 10.011 13.2799 10.8188 13.174L10.8191 13.1786C10.9604 13.1563 11.1038 13.1416 11.2512 13.1416H15.2975C13.8356 12.8371 11.3161 12.3711 9.68964 12.3933C9.26993 12.3991 8.9083 12.4367 8.64173 12.5189C6.89055 13.0586 2.00427 16.2966 0.206631 25.8757C-1.14511 33.0782 4.42202 38.7166 8.56072 39.6947V34.1151L9.11384 34.3423V42.0887V60.6643C9.11384 62.5078 10.6454 64.0009 12.5336 64.0009C13.9941 64.0009 15.2379 63.1055 15.7275 61.8472C15.8709 61.4791 15.9528 61.0814 15.9528 60.6643V36.3065Z" fill="#1971C2"/>
<path id="Vector_12" d="M22.8161 6.07127C22.8161 2.71812 20.0299 0 16.5937 0C13.1567 0 10.3711 2.71812 10.3711 6.07127C10.3711 9.42445 13.1567 12.1425 16.5937 12.1425C20.0299 12.1425 22.8161 9.42445 22.8161 6.07127Z" fill="#1971C2"/>
<path id="Vector_13" d="M11.565 23.8925L11.3154 24.4707L17.112 26.8524L17.3616 26.2741L11.565 23.8925Z" fill="black"/>
<path id="Vector_14" d="M11.0634 25.0523L10.8145 25.6309L16.6139 28.0065L16.8629 27.428L11.0634 25.0523Z" fill="black"/>
</g>
</g>
<defs>
<clipPath id="clip0_13_674">
<rect width="64" height="64" fill="white"/>
</clipPath>
</defs>
</svg>
