<svg width="64" height="64" viewBox="0 0 64 64" fill="none" xmlns="http://www.w3.org/2000/svg">
<g id="Frame">
<g id="Icon">
<path id="Vector" d="M14.666 14C15.7706 14 16.666 13.1046 16.666 12C16.666 10.8954 15.7706 10 14.666 10C13.5614 10 12.666 10.8954 12.666 12C12.666 13.1046 13.5614 14 14.666 14Z" fill="black"/>
<path id="Vector_2" d="M21.333 14C22.4376 14 23.333 13.1046 23.333 12C23.333 10.8954 22.4376 10 21.333 10C20.2284 10 19.333 10.8954 19.333 12C19.333 13.1046 20.2284 14 21.333 14Z" fill="black"/>
<path id="Vector_3" d="M28 14C29.1046 14 30 13.1046 30 12C30 10.8954 29.1046 10 28 10C26.8954 10 26 10.8954 26 12C26 13.1046 26.8954 14 28 14Z" fill="black"/>
<path id="Vector_4" fill-rule="evenodd" clip-rule="evenodd" d="M60.6663 24.0007C60.6663 25.1047 59.7703 26.0007 58.6663 26.0007C57.5623 26.0007 56.6663 25.1047 56.6663 24.0007V12.0007C56.6663 9.42465 54.5783 7.33398 51.9997 7.33398H11.9997C9.42101 7.33398 7.33301 9.42198 7.33301 12.0007V52.0006C7.33301 54.5793 9.42101 56.6673 11.9997 56.6673H34.6663C35.7703 56.6673 36.6663 57.5633 36.6663 58.6673C36.6663 59.7713 35.7703 60.6673 34.6663 60.6673H11.9997C7.21301 60.6673 3.33301 56.7873 3.33301 52.0006V12.0007C3.33301 7.21398 7.21301 3.33398 11.9997 3.33398H51.9997C56.7863 3.33398 60.6663 7.21398 60.6663 12.0007V24.0007Z" fill="#1971C2"/>
<path id="Vector_5" fill-rule="evenodd" clip-rule="evenodd" d="M46.9358 28.9823C48.0265 26.6463 50.8025 25.6357 53.1385 26.7263L57.9705 28.9797C60.3065 30.0703 61.3171 32.8463 60.2291 35.1823L51.2131 54.5157C51.0451 54.873 50.7758 55.1743 50.4398 55.3797L42.2238 60.377C41.6531 60.7237 40.9465 60.7637 40.3411 60.481C39.7331 60.1983 39.3091 59.6303 39.2078 58.969L37.7571 49.465C37.6958 49.0757 37.7545 48.6757 37.9198 48.3183L46.9358 28.9823ZM50.5625 30.673L41.8025 49.4597L42.7091 55.401L47.8425 52.2783L56.6025 33.4917C56.7598 33.1583 56.6158 32.761 56.2798 32.6063L51.4478 30.3503C51.1145 30.1957 50.7171 30.3397 50.5625 30.673Z" fill="#FFD700"/>
<path id="Vector_6" fill-rule="evenodd" clip-rule="evenodd" d="M58.6663 16.668C59.7703 16.668 60.6663 17.564 60.6663 18.668C60.6663 19.772 59.7703 20.668 58.6663 20.668H5.33301C4.22901 20.668 3.33301 19.772 3.33301 18.668C3.33301 17.564 4.22901 16.668 5.33301 16.668H58.6663Z" fill="#1971C2"/>
<path id="Vector_7" fill-rule="evenodd" clip-rule="evenodd" d="M45.6501 36.4763C44.6474 36.0096 44.2154 34.8176 44.6821 33.8176C45.1488 32.8176 46.3381 32.383 47.3408 32.8496L57.0074 37.359C58.0074 37.8256 58.4421 39.015 57.9754 40.015C57.5087 41.0176 56.3167 41.4496 55.3167 40.983L45.6501 36.4763Z" fill="#FFD700"/>
<path id="Vector_8" fill-rule="evenodd" clip-rule="evenodd" d="M16 30C14.896 30 14 29.104 14 28C14 26.896 14.896 26 16 26H34.6667C35.7707 26 36.6667 26.896 36.6667 28C36.6667 29.104 35.7707 30 34.6667 30H16Z" fill="black"/>
<path id="Vector_9" fill-rule="evenodd" clip-rule="evenodd" d="M16 40.668C14.896 40.668 14 39.772 14 38.668C14 37.564 14.896 36.668 16 36.668H34.6667C35.7707 36.668 36.6667 37.564 36.6667 38.668C36.6667 39.772 35.7707 40.668 34.6667 40.668H16Z" fill="black"/>
<path id="Vector_10" fill-rule="evenodd" clip-rule="evenodd" d="M16 51.334C14.896 51.334 14 50.438 14 49.334C14 48.23 14.896 47.334 16 47.334H29.3333C30.4373 47.334 31.3333 48.23 31.3333 49.334C31.3333 50.438 30.4373 51.334 29.3333 51.334H16Z" fill="black"/>
</g>
</g>
</svg>
