<svg width="53" height="58" viewBox="0 0 53 58" fill="none" xmlns="http://www.w3.org/2000/svg">
<g id="_x38_70_x2C__Defining_x2C__Management_x2C__Product_x2C__Solution">
<g id="Group">
<path id="Vector" d="M19.002 31.7605C14.9629 29.9065 12.3531 25.8386 12.3531 21.3974C12.3531 15.1126 17.4661 9.9995 23.7503 9.9995C24.4406 9.9995 25.0003 9.4405 25.0003 8.75C25.0003 8.05963 24.4405 7.5 23.7503 7.5C16.0871 7.5 9.85352 13.7343 9.85352 21.3974C9.85352 26.8124 13.0348 31.773 17.9593 34.0329C18.5869 34.3205 19.3289 34.0454 19.6165 33.4177C19.9046 32.7901 19.6295 32.0481 19.002 31.7605Z" fill="#FFD700"/>
<path id="Vector_2" d="M48.444 9.97075C50.1398 8.27487 50.1404 5.53 48.444 3.83413C46.7519 2.142 43.9995 2.14263 42.3074 3.83413L37.599 8.5425C34.0255 4.68638 29.0525 2.5 23.7497 2.5C13.3299 2.5 4.85254 10.9766 4.85254 21.3971C4.85254 28.4906 8.86679 35.0089 15.1465 38.2249V51.9111C15.1465 52.6022 15.7063 53.1613 16.3965 53.1613H18.2232C17.5869 55.3701 19.2517 57.5728 21.5438 57.5728H25.9559C28.24 57.5728 29.9142 55.3775 29.276 53.1613H31.1025C31.7929 53.1613 32.3527 52.6022 32.3527 51.9111V38.2249C40.241 34.1845 44.3438 25.1025 41.9849 16.4298L48.444 9.97075ZM44.0754 5.6015C44.7919 4.88438 45.9593 4.88438 46.6765 5.6015C47.3938 6.31863 47.3937 7.48538 46.6765 8.20263C46.5775 8.30225 32.2014 22.6777 30.0848 24.7944L23.3232 18.0328C22.606 17.3155 22.606 16.1489 23.3232 15.4316C24.0403 14.7144 25.207 14.7145 25.9243 15.4316L29.2008 18.7081C29.6895 19.1969 30.4808 19.1963 30.9689 18.7081L44.0754 5.6015ZM29.8525 45.662H17.6467V43.1618H29.8525V45.662ZM26.9115 54.1175C26.9115 54.6442 26.4825 55.0736 25.9559 55.0736H21.5438C21.0165 55.0736 20.5875 54.6441 20.5875 54.1175C20.5875 53.5909 21.0165 53.1613 21.5438 53.1613H25.9559C26.4825 53.1613 26.9115 53.5909 26.9115 54.1175ZM17.6467 50.6611V48.1609H29.8525V50.6611C28.3889 50.6611 18.8532 50.6611 17.6467 50.6611ZM30.5809 36.3061C30.1369 36.5104 29.8525 36.9536 29.8525 37.4429V40.6616H17.6467V37.4429C17.6467 36.9536 17.3622 36.5104 16.9183 36.3061C11.1074 33.6391 7.35266 27.787 7.35266 21.3971C7.35266 12.3551 14.7082 5.00012 23.7497 5.00012C28.3822 5.00012 32.7244 6.92325 35.8298 10.3119L30.0848 16.0567L27.6923 13.6636C26.0002 11.9721 23.2472 11.9721 21.555 13.6636C19.8635 15.3558 19.8635 18.1087 21.555 19.8009L29.2007 27.4459C29.6887 27.9339 30.4807 27.9339 30.9688 27.4459L39.8925 18.522C41.2123 25.9816 37.2584 33.2419 30.5809 36.3061Z" fill="#1971C2"/>
<path id="Vector_3" d="M3.75025 40C1.68212 40 0 41.6835 0 43.7504C0 45.8185 1.68225 47.5006 3.75025 47.5006C5.81775 47.5006 7.49988 45.8185 7.49988 43.7504C7.49988 41.6835 5.81775 40 3.75025 40ZM3.75025 45.0004C3.06037 45.0004 2.50012 44.4401 2.50012 43.7504C2.50012 43.0617 3.06037 42.5002 3.75025 42.5002C4.43937 42.5002 4.99975 43.0617 4.99975 43.7504C4.99975 44.4401 4.43937 45.0004 3.75025 45.0004Z" fill="#FFD700"/>
<path id="Vector_4" d="M3.75025 8.75C5.81775 8.75 7.49988 7.06725 7.49988 5.00025C7.49988 2.93212 5.81775 1.25 3.75025 1.25C1.68212 1.25 0 2.93212 0 5.00025C0 7.06725 1.68212 8.75 3.75025 8.75ZM3.75025 3.75025C4.43937 3.75025 4.99975 4.3105 4.99975 5.00025C4.99975 5.68887 4.4395 6.24975 3.75025 6.24975C3.06037 6.24988 2.50012 5.689 2.50012 5.00037C2.50012 4.31062 3.06037 3.75025 3.75025 3.75025Z" fill="#FFD700"/>
<path id="Vector_5" d="M48.1247 35C45.7122 35 43.75 36.9622 43.75 39.3754C43.75 41.7871 45.7122 43.7495 48.1247 43.7495C50.5371 43.7495 52.5001 41.7871 52.5001 39.3754C52.5001 36.9622 50.5371 35 48.1247 35ZM48.1247 41.2492C47.0907 41.2492 46.2496 40.4087 46.2496 39.3754C46.2496 38.3407 47.0907 37.5003 48.1247 37.5003C49.1587 37.5003 49.9999 38.3407 49.9999 39.3754C49.9999 40.4087 49.1587 41.2492 48.1247 41.2492Z" fill="#FFD700"/>
<path id="Vector_6" d="M1.25 16.25C1.94036 16.25 2.5 15.6904 2.5 15C2.5 14.3096 1.94036 13.75 1.25 13.75C0.559644 13.75 0 14.3096 0 15C0 15.6904 0.559644 16.25 1.25 16.25Z" fill="#FFD700"/>
<path id="Vector_7" d="M1.25 33.7501C1.25 34.44 1.80975 35.0002 2.4995 35.0002C3.18988 35.0002 3.74963 34.44 3.74963 33.7501C3.74963 33.0591 3.18988 32.5 2.4995 32.5C1.80975 32.5 1.25 33.0591 1.25 33.7501Z" fill="#FFD700"/>
<path id="Vector_8" d="M40.0001 46.25C39.3098 46.25 38.75 46.8103 38.75 47.5001C38.75 48.19 39.3098 48.7502 40.0001 48.7502C40.6904 48.7502 41.2501 48.19 41.2501 47.5001C41.2501 46.8103 40.6904 46.25 40.0001 46.25Z" fill="#FFD700"/>
<path id="Vector_9" d="M47.5 25C46.8096 25 46.25 25.5597 46.25 26.2495C46.25 26.9405 46.8096 27.4995 47.5 27.4995C48.1904 27.4995 48.7501 26.9405 48.7501 26.2495C48.7501 25.5597 48.1904 25 47.5 25Z" fill="#FFD700"/>
<path id="Vector_10" d="M37.4995 2.50025C38.1899 2.50025 38.7496 1.94 38.7496 1.25012C38.7496 0.55975 38.1899 0 37.4995 0C36.8096 0 36.25 0.55975 36.25 1.25012C36.25 1.94 36.8098 2.50025 37.4995 2.50025Z" fill="#FFD700"/>
</g>
</g>
</svg>
