<svg width="64" height="64" viewBox="0 0 64 64" fill="none" xmlns="http://www.w3.org/2000/svg">
<g id="Frame">
<g id="Line">
<path id="Vector" d="M44.707 2.293C44.5195 2.10545 44.2652 2.00006 44 2H12C11.7348 2 11.4804 2.10536 11.2929 2.29289C11.1054 2.48043 11 2.73478 11 3V26H13V4H43.586L51 11.414V60H13V54H11V61C11 61.2652 11.1054 61.5196 11.2929 61.7071C11.4804 61.8946 11.7348 62 12 62H52C52.2652 62 52.5196 61.8946 52.7071 61.7071C52.8946 61.5196 53 61.2652 53 61V11C52.9999 10.7348 52.8946 10.4805 52.707 10.293L44.707 2.293Z" fill="#1971C2"/>
<path id="Vector_2" d="M41 6V13C41 13.2652 41.1054 13.5196 41.2929 13.7071C41.4804 13.8946 41.7348 14 42 14H49V12H43V6H41Z" fill="black"/>
<path id="Vector_3" d="M32 52V50H9V28H7V51C7 51.2652 7.10536 51.5196 7.29289 51.7071C7.48043 51.8946 7.73478 52 8 52H32Z" fill="black"/>
<path id="Vector_4" d="M19.707 37.293C19.5194 37.1055 19.2651 37.0002 19 37.0002C18.7348 37.0002 18.4805 37.1055 18.293 37.293L11.293 44.293L12.707 45.707L19 39.414L21.293 41.707C21.4805 41.8945 21.7348 41.9998 22 41.9998C22.2651 41.9998 22.5194 41.8945 22.707 41.707L28 36.414V39H30V34C30 33.7348 29.8946 33.4804 29.7071 33.2929C29.5195 33.1054 29.2652 33 29 33H24V35H26.586L22 39.586L19.707 37.293Z" fill="#FFD700"/>
</g>
</g>
</svg>
