<svg width="64" height="64" viewBox="0 0 64 64" fill="none" xmlns="http://www.w3.org/2000/svg">
<g id="Frame">
<path id="Vector" d="M60 59H5V4C5 3.73478 4.89464 3.48043 4.70711 3.29289C4.51957 3.10536 4.26522 3 4 3C3.73478 3 3.48043 3.10536 3.29289 3.29289C3.10536 3.48043 3 3.73478 3 4V60C3 60.2652 3.10536 60.5196 3.29289 60.7071C3.48043 60.8946 3.73478 61 4 61H60C60.2652 61 60.5196 60.8946 60.7071 60.7071C60.8946 60.5196 61 60.2652 61 60C61 59.7348 60.8946 59.4804 60.7071 59.2929C60.5196 59.1054 60.2652 59 60 59Z" fill="#1971C2"/>
<path id="Vector_2" d="M19.7001 52.7305H14.4601C13.836 52.7305 13.3301 53.2364 13.3301 53.8605V53.8705C13.3301 54.4946 13.836 55.0005 14.4601 55.0005H19.7001C20.3241 55.0005 20.8301 54.4946 20.8301 53.8705V53.8605C20.8301 53.2364 20.3241 52.7305 19.7001 52.7305Z" fill="black"/>
<path id="Vector_3" d="M35.7704 52.7305H30.5304C29.9063 52.7305 29.4004 53.2364 29.4004 53.8605V53.8705C29.4004 54.4946 29.9063 55.0005 30.5304 55.0005H35.7704C36.3945 55.0005 36.9004 54.4946 36.9004 53.8705V53.8605C36.9004 53.2364 36.3945 52.7305 35.7704 52.7305Z" fill="black"/>
<path id="Vector_4" d="M51.5096 52.7305H46.2696C45.6455 52.7305 45.1396 53.2364 45.1396 53.8605V53.8705C45.1396 54.4946 45.6455 55.0005 46.2696 55.0005H51.5096C52.1337 55.0005 52.6396 54.4946 52.6396 53.8705V53.8605C52.6396 53.2364 52.1337 52.7305 51.5096 52.7305Z" fill="black"/>
<path id="Vector_5" d="M14.0801 50H20.0801C20.3453 50 20.5996 49.8946 20.7872 49.7071C20.9747 49.5196 21.0801 49.2652 21.0801 49V38C21.0801 37.7348 20.9747 37.4804 20.7872 37.2929C20.5996 37.1054 20.3453 37 20.0801 37H14.0801C13.8148 37 13.5605 37.1054 13.3729 37.2929C13.1854 37.4804 13.0801 37.7348 13.0801 38V49C13.0801 49.1313 13.1059 49.2614 13.1562 49.3827C13.2064 49.504 13.2801 49.6142 13.3729 49.7071C13.4658 49.8 13.576 49.8736 13.6974 49.9239C13.8187 49.9741 13.9487 50 14.0801 50ZM15.0801 39H19.0801V48H15.0801V39Z" fill="#1971C2"/>
<path id="Vector_6" d="M30.1504 50H36.1504C36.4156 50 36.67 49.8946 36.8575 49.7071C37.0451 49.5196 37.1504 49.2652 37.1504 49V29C37.1504 28.7348 37.0451 28.4804 36.8575 28.2929C36.67 28.1054 36.4156 28 36.1504 28H30.1504C29.8852 28 29.6309 28.1054 29.4433 28.2929C29.2558 28.4804 29.1504 28.7348 29.1504 29V49C29.1504 49.2652 29.2558 49.5196 29.4433 49.7071C29.6309 49.8946 29.8852 50 30.1504 50ZM31.1504 30H35.1504V48H31.1504V30Z" fill="#1971C2"/>
<path id="Vector_7" d="M45.8896 50H51.8896C52.1548 50 52.4092 49.8946 52.5967 49.7071C52.7843 49.5196 52.8896 49.2652 52.8896 49V20C52.8896 19.7348 52.7843 19.4804 52.5967 19.2929C52.4092 19.1054 52.1548 19 51.8896 19H45.8896C45.6244 19 45.37 19.1054 45.1825 19.2929C44.995 19.4804 44.8896 19.7348 44.8896 20V49C44.8896 49.2652 44.995 49.5196 45.1825 49.7071C45.37 49.8946 45.6244 50 45.8896 50ZM46.8896 21H50.8896V48H46.8896V21Z" fill="#1971C2"/>
<path id="Vector_8" d="M17.0801 30.8501C16.6286 30.8776 16.1844 30.7262 15.8438 30.4286C15.5031 30.131 15.2934 29.7112 15.2601 29.2601C15.2601 28.9201 14.8901 28.6401 14.4401 28.6401C13.9901 28.6401 13.6201 28.9201 13.6201 29.2601C13.6707 29.8926 13.9207 30.4928 14.334 30.9744C14.7472 31.4559 15.3026 31.794 15.9201 31.9401L16.2801 32.0501V33.3701C16.3292 33.5499 16.4361 33.7087 16.5842 33.8218C16.7324 33.935 16.9137 33.9962 17.1001 33.9962C17.2865 33.9962 17.4678 33.935 17.616 33.8218C17.7641 33.7087 17.871 33.5499 17.9201 33.3701V32.0001L18.2701 31.9001C18.8821 31.7486 19.4308 31.4081 19.8383 30.927C20.2458 30.4459 20.4913 29.8487 20.5401 29.2201C20.5401 27.6601 18.9901 26.3801 17.0801 26.3801C16.6286 26.4076 16.1844 26.2562 15.8438 25.9586C15.5031 25.661 15.2934 25.2412 15.2601 24.7901C15.2934 24.339 15.5031 23.9192 15.8438 23.6216C16.1844 23.324 16.6286 23.1725 17.0801 23.2001C17.5333 23.1698 17.98 23.32 18.3228 23.6179C18.6657 23.9157 18.8768 24.3371 18.9101 24.7901C18.9555 24.9719 19.0603 25.1333 19.208 25.2487C19.3557 25.364 19.5377 25.4267 19.7251 25.4267C19.9125 25.4267 20.0945 25.364 20.2422 25.2487C20.3899 25.1333 20.4947 24.9719 20.5401 24.7901C20.4984 24.1603 20.2552 23.5607 19.8464 23.0799C19.4376 22.599 18.8849 22.2625 18.2701 22.1201L17.9201 22.0101V20.6301C17.871 20.4502 17.7641 20.2915 17.616 20.1783C17.4678 20.0652 17.2865 20.0039 17.1001 20.0039C16.9137 20.0039 16.7324 20.0652 16.5842 20.1783C16.4361 20.2915 16.3292 20.4502 16.2801 20.6301V22.0501L15.9201 22.1501C15.3026 22.2961 14.7472 22.6342 14.334 23.1158C13.9207 23.5973 13.6707 24.1975 13.6201 24.8301C13.6201 26.4001 15.1801 27.6701 17.0801 27.6701C17.31 27.6335 17.5452 27.6472 17.7693 27.7103C17.9934 27.7734 18.2012 27.8843 18.3783 28.0355C18.5554 28.1866 18.6976 28.3744 18.7951 28.5858C18.8926 28.7972 18.9431 29.0273 18.9431 29.2601C18.9431 29.4929 18.8926 29.723 18.7951 29.9344C18.6976 30.1458 18.5554 30.3336 18.3783 30.4847C18.2012 30.6358 17.9934 30.7468 17.7693 30.8099C17.5452 30.8729 17.31 30.8867 17.0801 30.8501Z" fill="#FFD700"/>
<path id="Vector_9" d="M33.1502 22.1001C32.6987 22.1276 32.2545 21.9762 31.9138 21.6786C31.5732 21.381 31.3635 20.9612 31.3302 20.5101C31.3302 20.1701 30.9602 19.8901 30.5102 19.8901C30.3209 19.8672 30.1303 19.9193 29.9789 20.0351C29.8275 20.151 29.7275 20.3214 29.7002 20.5101C29.7415 21.1456 29.9881 21.7506 30.4029 22.2339C30.8177 22.7172 31.3782 23.0528 32.0002 23.1901L32.3602 23.3001V24.6201C32.4092 24.7999 32.5161 24.9587 32.6643 25.0718C32.8125 25.185 32.9937 25.2462 33.1802 25.2462C33.3666 25.2462 33.5478 25.185 33.696 25.0718C33.8442 24.9587 33.9511 24.7999 34.0002 24.6201V23.2901L34.3501 23.1901C34.9621 23.0386 35.5108 22.6981 35.9183 22.217C36.3258 21.7359 36.5714 21.1387 36.6201 20.5101C36.6201 18.9501 35.0702 17.6701 33.1602 17.6701C32.7087 17.6976 32.2645 17.5462 31.9238 17.2486C31.5832 16.951 31.3735 16.5312 31.3402 16.0801C31.3972 15.6363 31.6139 15.2286 31.9498 14.9331C32.2857 14.6375 32.7178 14.4745 33.1652 14.4745C33.6125 14.4745 34.0446 14.6375 34.3805 14.9331C34.7164 15.2286 34.9331 15.6363 34.9902 16.0801C35.0355 16.2619 35.1404 16.4233 35.2881 16.5387C35.4358 16.654 35.6178 16.7167 35.8052 16.7167C35.9925 16.7167 36.1746 16.654 36.3222 16.5387C36.4699 16.4233 36.5748 16.2619 36.6201 16.0801C36.5785 15.4503 36.3353 14.8507 35.9265 14.3699C35.5177 13.889 34.965 13.5525 34.3501 13.4101L34.0002 13.3001V11.8801C33.9511 11.7002 33.8442 11.5415 33.696 11.4283C33.5478 11.3152 33.3666 11.2539 33.1802 11.2539C32.9937 11.2539 32.8125 11.3152 32.6643 11.4283C32.5161 11.5415 32.4092 11.7002 32.3602 11.8801V13.3001L32.0101 13.4001C31.3882 13.5374 30.8277 13.8729 30.4129 14.3562C29.9981 14.8396 29.7515 15.4445 29.7101 16.0801C29.7101 17.6501 31.2602 18.9201 33.1602 18.9201C33.6144 18.8897 34.0622 19.0396 34.4066 19.3372C34.7511 19.6349 34.9643 20.0563 35.0002 20.5101C34.9837 20.7362 34.9227 20.9568 34.8207 21.1593C34.7187 21.3617 34.5777 21.542 34.4058 21.6898C34.2339 21.8375 34.0344 21.9499 33.8189 22.0203C33.6034 22.0907 33.3762 22.1178 33.1502 22.1001Z" fill="#FFD700"/>
<path id="Vector_10" d="M49.0596 12.6001C48.8349 12.615 48.6095 12.5854 48.3963 12.513C48.1831 12.4406 47.9863 12.3268 47.8172 12.1781C47.6481 12.0295 47.5101 11.8489 47.4109 11.6467C47.3118 11.4445 47.2536 11.2248 47.2396 11.0001C47.2396 10.6601 46.8696 10.3801 46.4196 10.3801C45.9696 10.3801 45.5996 10.6601 45.5996 11.0001C45.6409 11.6356 45.8875 12.2406 46.3023 12.7239C46.7171 13.2072 47.2776 13.5428 47.8996 13.6801L48.2496 13.7901V15.1101C48.2987 15.2899 48.4055 15.4487 48.5537 15.5618C48.7019 15.675 48.8831 15.7362 49.0696 15.7362C49.256 15.7362 49.4373 15.675 49.5854 15.5618C49.7336 15.4487 49.8405 15.2899 49.8896 15.1101V13.7901L50.2396 13.6901C50.8549 13.5398 51.407 13.1986 51.8165 12.7154C52.2261 12.2322 52.4722 11.6317 52.5196 11.0001C52.5196 9.44008 50.9596 8.16008 49.0596 8.16008C48.6075 8.19027 48.1618 8.03978 47.8206 7.74166C47.4793 7.44354 47.2704 7.02216 47.2396 6.57008C47.3044 6.13375 47.5239 5.73525 47.858 5.44718C48.192 5.1591 48.6185 5.00063 49.0596 5.00063C49.5007 5.00063 49.9271 5.1591 50.2612 5.44718C50.5953 5.73525 50.8147 6.13375 50.8796 6.57008C50.9287 6.74993 51.0355 6.90865 51.1837 7.0218C51.3319 7.13495 51.5131 7.19625 51.6996 7.19625C51.886 7.19625 52.0673 7.13495 52.2154 7.0218C52.3636 6.90865 52.4705 6.74993 52.5196 6.57008C52.4682 5.94195 52.2202 5.34597 51.811 4.8667C51.4017 4.38743 50.8519 4.04923 50.2396 3.90008L49.8896 3.79008V2.38008C49.8405 2.20022 49.7336 2.0415 49.5854 1.92835C49.4373 1.8152 49.256 1.75391 49.0696 1.75391C48.8831 1.75391 48.7019 1.8152 48.5537 1.92835C48.4055 2.0415 48.2987 2.20022 48.2496 2.38008V3.80008L47.8996 3.90008C47.2776 4.03738 46.7171 4.37293 46.3023 4.85625C45.8875 5.33957 45.6409 5.94451 45.5996 6.58008C45.5996 8.15008 47.1496 9.42008 49.0596 9.42008C49.5088 9.39503 49.9502 9.54602 50.29 9.841C50.6298 10.136 50.8413 10.5517 50.8796 11.0001C50.8487 11.453 50.6401 11.8753 50.2992 12.175C49.9583 12.4747 49.5127 12.6275 49.0596 12.6001Z" fill="#FFD700"/>
</g>
</svg>
