<svg width="64" height="64" viewBox="0 0 64 64" fill="none" xmlns="http://www.w3.org/2000/svg">
<g id="Layer_1">
<path id="Vector" d="M50.6048 32.6501H33.4432V29.0699C33.4432 28.6872 33.2911 28.3202 33.0205 28.0496C32.7499 27.779 32.3829 27.627 32.0002 27.627C31.6175 27.627 31.2505 27.779 30.9799 28.0496C30.7093 28.3202 30.5573 28.6872 30.5573 29.0699V32.6501H13.3277C12.9452 32.6505 12.5784 32.8027 12.3079 33.0732C12.0374 33.3437 11.8852 33.7104 11.8848 34.093V39.1161C11.8855 39.4984 12.0378 39.8647 12.3083 40.1347C12.5789 40.4048 12.9455 40.5564 13.3277 40.5564C13.71 40.5564 14.0766 40.4048 14.3471 40.1347C14.6176 39.8647 14.77 39.4984 14.7707 39.1161V35.536H49.1618V39.1161C49.1625 39.4984 49.3148 39.8647 49.5854 40.1347C49.8559 40.4048 50.2225 40.5564 50.6048 40.5564C50.987 40.5564 51.3536 40.4048 51.6241 40.1347C51.8947 39.8647 52.047 39.4984 52.0477 39.1161V34.093C52.0473 33.7104 51.8951 33.3437 51.6246 33.0732C51.3541 32.8027 50.9874 32.6505 50.6048 32.6501Z" fill="#FFD700"/>
<path id="Vector_2" d="M41.8518 18.6611C41.7958 18.3346 41.6637 18.0258 41.4662 17.7598C41.2687 17.4938 41.0113 17.2781 40.7149 17.1301C38.7381 16.1443 34.4001 14.6885 34.4001 14.6885V13.2562L34.5209 13.165C35.363 12.5207 35.9261 11.5782 36.0944 10.5313L36.1187 10.3786H36.2364C36.5544 10.3785 36.8652 10.2836 37.1291 10.1062C37.393 9.92872 37.598 9.67669 37.7181 9.38223C37.8611 9.12375 37.9361 8.83315 37.9361 8.53773C37.9361 8.33434 37.8974 8.1328 37.8221 7.94385C37.7844 7.7372 37.6696 7.5526 37.5009 7.42742L37.1007 7.18442L37.2002 6.75002C37.9232 3.59831 35.4815 0.759492 32.203 0.681267C32.1233 0.679767 32.0443 0.678997 31.9661 0.680507C31.8878 0.679007 31.8089 0.679747 31.7291 0.681267C28.4506 0.759492 26.009 3.59831 26.732 6.75002L26.8315 7.18442L26.4312 7.42742C26.2625 7.5526 26.1477 7.7372 26.11 7.94385C26.0347 8.1328 25.996 8.33434 25.9961 8.53773C25.996 8.83315 26.071 9.12375 26.214 9.38223C26.3341 9.67669 26.5392 9.92872 26.8031 10.1062C27.0669 10.2836 27.3777 10.3785 27.6957 10.3786H27.8134L27.8377 10.5313C28.006 11.5782 28.5692 12.5207 29.4113 13.165L29.5321 13.2562V14.6885C29.5321 14.6885 25.1941 16.1443 23.2172 17.1301C22.9208 17.2781 22.6634 17.4938 22.4659 17.7598C22.2684 18.0258 22.1363 18.3346 22.0804 18.6611C21.8448 20.4225 21.7117 22.196 21.6816 23.9727H42.2505C42.2204 22.196 42.0873 20.4225 41.8518 18.6611Z" fill="#1971C2"/>
<path id="Vector_3" d="M21.6602 58.7947C21.6125 58.5165 21.5 58.2535 21.3317 58.0269C21.1635 57.8003 20.9442 57.6165 20.6917 57.4904C19.0077 56.6507 15.3122 55.4104 15.3122 55.4104V54.1903L15.4151 54.1126C16.1325 53.5638 16.6122 52.7608 16.7556 51.869L16.7763 51.7389H16.8766C17.1475 51.7388 17.4122 51.658 17.637 51.5068C17.8618 51.3557 18.0365 51.141 18.1388 50.8901C18.2606 50.6699 18.3245 50.4224 18.3245 50.1707C18.3245 49.9974 18.2915 49.8257 18.2274 49.6648C18.1953 49.4887 18.0975 49.3315 17.9537 49.2248L17.6128 49.0179L17.6975 48.6478C18.3135 45.9629 16.2335 43.5446 13.4405 43.4779C13.3726 43.4766 13.3053 43.476 13.2387 43.4773C13.1721 43.476 13.1048 43.4766 13.0368 43.4779C10.2439 43.5446 8.16394 45.9629 8.77985 48.6478L8.8646 49.0179L8.52365 49.2248C8.37994 49.3315 8.28212 49.4887 8.24998 49.6648C8.18585 49.8257 8.15292 49.9974 8.15294 50.1707C8.15288 50.4224 8.21677 50.6699 8.33862 50.8901C8.44092 51.141 8.6156 51.3557 8.8404 51.5068C9.0652 51.658 9.32993 51.7388 9.60084 51.7389H9.70112L9.72182 51.869C9.86518 52.7608 10.3449 53.5638 11.0623 54.1126L11.1652 54.1903V55.4104C11.1652 55.4104 7.46975 56.6507 5.78569 57.4904C5.53318 57.6165 5.31392 57.8003 5.14566 58.0269C4.97739 58.2535 4.86487 58.5165 4.81719 58.7947C4.61655 60.2952 4.50314 61.806 4.47754 63.3196H21.9999C21.9743 61.806 21.8609 60.2952 21.6602 58.7947Z" fill="#1971C2"/>
<path id="Vector_4" d="M59.1827 58.7947C59.135 58.5165 59.0225 58.2535 58.8542 58.0269C58.6859 57.8003 58.4667 57.6165 58.2142 57.4904C56.5301 56.6507 52.8347 55.4104 52.8347 55.4104V54.1903L52.9375 54.1126C53.6549 53.5638 54.1347 52.7608 54.278 51.869L54.2987 51.7389H54.399C54.6699 51.7388 54.9347 51.658 55.1595 51.5068C55.3843 51.3557 55.5589 51.141 55.6612 50.8901C55.7831 50.6699 55.847 50.4224 55.8469 50.1707C55.8469 49.9974 55.814 49.8257 55.7499 49.6648C55.7177 49.4887 55.6199 49.3315 55.4762 49.2248L55.1353 49.0179L55.22 48.6478C55.8359 45.9629 53.7559 43.5446 50.963 43.4779C50.8951 43.4766 50.8278 43.476 50.7612 43.4773C50.6945 43.476 50.6272 43.4766 50.5593 43.4779C47.7664 43.5446 45.6864 45.9629 46.3023 48.6478L46.3871 49.0179L46.0461 49.2248C45.9024 49.3315 45.8046 49.4887 45.7724 49.6648C45.7083 49.8257 45.6754 49.9974 45.6754 50.1707C45.6753 50.4224 45.7392 50.6699 45.8611 50.8901C45.9634 51.141 46.1381 51.3557 46.3629 51.5068C46.5877 51.658 46.8524 51.7388 47.1233 51.7389H47.2236L47.2443 51.869C47.3876 52.7608 47.8674 53.5638 48.5848 54.1126L48.6877 54.1903V55.4104C48.6877 55.4104 44.9922 56.6507 43.3082 57.4904C43.0556 57.6165 42.8364 57.8003 42.6681 58.0269C42.4999 58.2535 42.3873 58.5165 42.3397 58.7947C42.139 60.2952 42.0256 61.806 42 63.3196H59.5223C59.4967 61.806 59.3833 60.2952 59.1827 58.7947Z" fill="#1971C2"/>
</g>
</svg>
