<svg width="64" height="64" viewBox="0 0 64 64" fill="none" xmlns="http://www.w3.org/2000/svg">
<g id="Frame">
<g id="technology">
<path id="Vector" d="M61 50H49V49C48.9984 47.6744 48.4711 46.4036 47.5338 45.4662C46.5964 44.5289 45.3256 44.0016 44 44H20C18.6744 44.0016 17.4036 44.5289 16.4662 45.4662C15.5289 46.4036 15.0016 47.6744 15 49V50H3C2.73478 50 2.48043 50.1054 2.29289 50.2929C2.10536 50.4804 2 50.7348 2 51V61C2 61.2652 2.10536 61.5196 2.29289 61.7071C2.48043 61.8946 2.73478 62 3 62H61C61.2652 62 61.5196 61.8946 61.7071 61.7071C61.8946 61.5196 62 61.2652 62 61V51C62 50.7348 61.8946 50.4804 61.7071 50.2929C61.5196 50.1054 61.2652 50 61 50ZM17 49C17 48.2044 17.3161 47.4413 17.8787 46.8787C18.4413 46.3161 19.2044 46 20 46H44C44.7957 46 45.5587 46.3161 46.1213 46.8787C46.6839 47.4413 47 48.2044 47 49V50H17V49ZM60 60H4V52H60V60Z" fill="#1971C2"/>
<path id="Vector_2" d="M12 59C12.5933 59 13.1734 58.8241 13.6667 58.4944C14.1601 58.1648 14.5446 57.6962 14.7716 57.148C14.9987 56.5999 15.0581 55.9967 14.9424 55.4147C14.8266 54.8328 14.5409 54.2982 14.1213 53.8787C13.7018 53.4591 13.1672 53.1734 12.5853 53.0576C12.0033 52.9419 11.4001 53.0013 10.8519 53.2284C10.3038 53.4554 9.83524 53.8399 9.50559 54.3333C9.17595 54.8266 9 55.4067 9 56C9 56.7957 9.31607 57.5587 9.87868 58.1213C10.4413 58.6839 11.2044 59 12 59ZM12 55C12.1978 55 12.3911 55.0586 12.5556 55.1685C12.72 55.2784 12.8482 55.4346 12.9239 55.6173C12.9996 55.8 13.0194 56.0011 12.9808 56.1951C12.9422 56.3891 12.847 56.5673 12.7071 56.7071C12.5673 56.847 12.3891 56.9422 12.1951 56.9808C12.0011 57.0194 11.8 56.9996 11.6173 56.9239C11.4346 56.8482 11.2784 56.72 11.1685 56.5556C11.0586 56.3911 11 56.1978 11 56C11 55.7348 11.1054 55.4804 11.2929 55.2929C11.4804 55.1054 11.7348 55 12 55Z" fill="black"/>
<path id="Vector_3" d="M22 59C22.5933 59 23.1734 58.8241 23.6667 58.4944C24.1601 58.1648 24.5446 57.6962 24.7716 57.148C24.9987 56.5999 25.0581 55.9967 24.9424 55.4147C24.8266 54.8328 24.5409 54.2982 24.1213 53.8787C23.7018 53.4591 23.1672 53.1734 22.5853 53.0576C22.0033 52.9419 21.4001 53.0013 20.8519 53.2284C20.3038 53.4554 19.8352 53.8399 19.5056 54.3333C19.1759 54.8266 19 55.4067 19 56C19 56.7957 19.3161 57.5587 19.8787 58.1213C20.4413 58.6839 21.2044 59 22 59ZM22 55C22.1978 55 22.3911 55.0586 22.5556 55.1685C22.72 55.2784 22.8482 55.4346 22.9239 55.6173C22.9996 55.8 23.0194 56.0011 22.9808 56.1951C22.9422 56.3891 22.847 56.5673 22.7071 56.7071C22.5673 56.847 22.3891 56.9422 22.1951 56.9808C22.0011 57.0194 21.8 56.9996 21.6173 56.9239C21.4346 56.8482 21.2784 56.72 21.1685 56.5556C21.0586 56.3911 21 56.1978 21 56C21 55.7348 21.1054 55.4804 21.2929 55.2929C21.4804 55.1054 21.7348 55 22 55Z" fill="black"/>
<path id="Vector_4" d="M52 59C52.5933 59 53.1734 58.8241 53.6667 58.4944C54.1601 58.1648 54.5446 57.6962 54.7716 57.148C54.9987 56.5999 55.0581 55.9967 54.9424 55.4147C54.8266 54.8328 54.5409 54.2982 54.1213 53.8787C53.7018 53.4591 53.1672 53.1734 52.5853 53.0576C52.0033 52.9419 51.4001 53.0013 50.852 53.2284C50.3038 53.4554 49.8352 53.8399 49.5056 54.3333C49.1759 54.8266 49 55.4067 49 56C49 56.7957 49.3161 57.5587 49.8787 58.1213C50.4413 58.6839 51.2044 59 52 59ZM52 55C52.1978 55 52.3911 55.0586 52.5556 55.1685C52.72 55.2784 52.8482 55.4346 52.9239 55.6173C52.9996 55.8 53.0194 56.0011 52.9808 56.1951C52.9422 56.3891 52.847 56.5673 52.7071 56.7071C52.5673 56.847 52.3891 56.9422 52.1951 56.9808C52.0011 57.0194 51.8 56.9996 51.6173 56.9239C51.4346 56.8482 51.2784 56.72 51.1685 56.5556C51.0586 56.3911 51 56.1978 51 56C51 55.7348 51.1054 55.4804 51.2929 55.2929C51.4804 55.1054 51.7348 55 52 55Z" fill="black"/>
<path id="Vector_5" d="M42 59C42.5933 59 43.1734 58.8241 43.6667 58.4944C44.1601 58.1648 44.5446 57.6962 44.7716 57.148C44.9987 56.5999 45.0581 55.9967 44.9424 55.4147C44.8266 54.8328 44.5409 54.2982 44.1213 53.8787C43.7018 53.4591 43.1672 53.1734 42.5853 53.0576C42.0033 52.9419 41.4001 53.0013 40.852 53.2284C40.3038 53.4554 39.8352 53.8399 39.5056 54.3333C39.1759 54.8266 39 55.4067 39 56C39 56.7957 39.3161 57.5587 39.8787 58.1213C40.4413 58.6839 41.2044 59 42 59ZM42 55C42.1978 55 42.3911 55.0586 42.5556 55.1685C42.72 55.2784 42.8482 55.4346 42.9239 55.6173C42.9996 55.8 43.0194 56.0011 42.9808 56.1951C42.9422 56.3891 42.847 56.5673 42.7071 56.7071C42.5673 56.847 42.3891 56.9422 42.1951 56.9808C42.0011 57.0194 41.8 56.9996 41.6173 56.9239C41.4346 56.8482 41.2784 56.72 41.1685 56.5556C41.0586 56.3911 41 56.1978 41 56C41 55.7348 41.1054 55.4804 41.2929 55.2929C41.4804 55.1054 41.7348 55 42 55Z" fill="black"/>
<path id="Vector_6" d="M32 59C32.5933 59 33.1734 58.8241 33.6667 58.4944C34.1601 58.1648 34.5446 57.6962 34.7716 57.148C34.9987 56.5999 35.0581 55.9967 34.9424 55.4147C34.8266 54.8328 34.5409 54.2982 34.1213 53.8787C33.7018 53.4591 33.1672 53.1734 32.5853 53.0576C32.0033 52.9419 31.4001 53.0013 30.8519 53.2284C30.3038 53.4554 29.8352 53.8399 29.5056 54.3333C29.1759 54.8266 29 55.4067 29 56C29 56.7957 29.3161 57.5587 29.8787 58.1213C30.4413 58.6839 31.2044 59 32 59ZM32 55C32.1978 55 32.3911 55.0586 32.5556 55.1685C32.72 55.2784 32.8482 55.4346 32.9239 55.6173C32.9996 55.8 33.0194 56.0011 32.9808 56.1951C32.9422 56.3891 32.847 56.5673 32.7071 56.7071C32.5673 56.847 32.3891 56.9422 32.1951 56.9808C32.0011 57.0194 31.8 56.9996 31.6173 56.9239C31.4346 56.8482 31.2784 56.72 31.1685 56.5556C31.0586 56.3911 31 56.1978 31 56C31 55.7348 31.1054 55.4804 31.2929 55.2929C31.4804 55.1054 31.7348 55 32 55Z" fill="black"/>
<path id="Vector_7" d="M61 2H3C2.73478 2 2.48043 2.10536 2.29289 2.29289C2.10536 2.48043 2 2.73478 2 3V7C2 7.26522 2.10536 7.51957 2.29289 7.70711C2.48043 7.89464 2.73478 8 3 8H16.1C16.3321 9.12859 16.9462 10.1427 17.8387 10.8713C18.7313 11.5999 19.8478 11.9985 21 12H43C44.1522 11.9985 45.2687 11.5999 46.1613 10.8713C47.0538 10.1427 47.6679 9.12859 47.9 8H61C61.2652 8 61.5196 7.89464 61.7071 7.70711C61.8946 7.51957 62 7.26522 62 7V3C62 2.73478 61.8946 2.48043 61.7071 2.29289C61.5196 2.10536 61.2652 2 61 2ZM4 4H16V6H4V4ZM46 7C46 7.79565 45.6839 8.55871 45.1213 9.12132C44.5587 9.68393 43.7957 10 43 10H21C20.2044 10 19.4413 9.68393 18.8787 9.12132C18.3161 8.55871 18 7.79565 18 7V4H46V7ZM60 6H48V4H60V6Z" fill="#1971C2"/>
<path id="Vector_8" d="M32 24C31.2089 24 30.4355 24.2346 29.7777 24.6741C29.1199 25.1136 28.6072 25.7384 28.3045 26.4693C28.0017 27.2002 27.9225 28.0044 28.0769 28.7804C28.2312 29.5563 28.6122 30.269 29.1716 30.8284C29.731 31.3878 30.4437 31.7688 31.2196 31.9231C31.9956 32.0775 32.7998 31.9983 33.5307 31.6955C34.2616 31.3928 34.8864 30.8801 35.3259 30.2223C35.7654 29.5645 36 28.7911 36 28C36 26.9391 35.5786 25.9217 34.8284 25.1716C34.0783 24.4214 33.0609 24 32 24ZM32 30C31.6044 30 31.2178 29.8827 30.8889 29.6629C30.56 29.4432 30.3036 29.1308 30.1522 28.7654C30.0009 28.3999 29.9613 27.9978 30.0384 27.6098C30.1156 27.2219 30.3061 26.8655 30.5858 26.5858C30.8655 26.3061 31.2219 26.1156 31.6098 26.0384C31.9978 25.9613 32.3999 26.0009 32.7654 26.1522C33.1308 26.3036 33.4432 26.56 33.6629 26.8889C33.8827 27.2178 34 27.6044 34 28C34 28.5304 33.7893 29.0391 33.4142 29.4142C33.0391 29.7893 32.5304 30 32 30Z" fill="#FFD700"/>
<path id="Vector_9" d="M58.9997 25C58.3815 25.0026 57.7791 25.1961 57.275 25.5541C56.771 25.9121 56.3898 26.4171 56.1837 27H40.9997V26C40.9997 25.7769 40.925 25.5603 40.7877 25.3845C40.6503 25.2088 40.4582 25.084 40.2417 25.03L39.5737 24.863L39.9287 24.272C40.0432 24.0808 40.0906 23.8568 40.0632 23.6355C40.0359 23.4143 39.9354 23.2086 39.7777 23.051L39.0777 22.351L45.4147 16H53.1837C53.4196 16.6672 53.8838 17.2296 54.4942 17.5876C55.1046 17.9457 55.822 18.0765 56.5195 17.9568C57.217 17.8371 57.8497 17.4747 58.3058 16.9337C58.762 16.3926 59.0122 15.7077 59.0122 15C59.0122 14.2923 58.762 13.6074 58.3058 13.0663C57.8497 12.5253 57.217 12.1629 56.5195 12.0432C55.822 11.9235 55.1046 12.0543 54.4942 12.4124C53.8838 12.7705 53.4196 13.3328 53.1837 14H44.9997C44.8683 13.9999 44.738 14.0257 44.6166 14.076C44.4951 14.1263 44.3847 14.2 44.2917 14.293L37.6607 20.933L36.9497 20.222C36.7921 20.0641 36.5862 19.9635 36.3647 19.9361C36.1433 19.9088 35.9191 19.9562 35.7277 20.071L35.1367 20.426L34.9697 19.758C34.9158 19.5416 34.791 19.3494 34.6152 19.2121C34.4394 19.0747 34.2228 19.0001 33.9997 19H29.9997C29.7767 19.0001 29.56 19.0747 29.3843 19.2121C29.2085 19.3494 29.0837 19.5416 29.0297 19.758L28.8627 20.426L28.2717 20.071C28.0804 19.9562 27.8562 19.9088 27.6347 19.9361C27.4133 19.9635 27.2074 20.0641 27.0497 20.222L26.3387 20.933L19.7077 14.293C19.6148 14.2 19.5044 14.1263 19.3829 14.076C19.2614 14.0257 19.1312 13.9999 18.9997 14H10.8157C10.5798 13.3328 10.1157 12.7705 9.50525 12.4124C8.89484 12.0543 8.17749 11.9235 7.48 12.0432C6.7825 12.1629 6.14977 12.5253 5.69363 13.0663C5.23748 13.6074 4.9873 14.2923 4.9873 15C4.9873 15.7077 5.23748 16.3926 5.69363 16.9337C6.14977 17.4747 6.7825 17.8371 7.48 17.9568C8.17749 18.0765 8.89484 17.9457 9.50525 17.5876C10.1157 17.2296 10.5798 16.6672 10.8157 16H18.5847L24.9237 22.348L24.2237 23.048C24.0661 23.2056 23.9656 23.4113 23.9382 23.6325C23.9109 23.8538 23.9582 24.0778 24.0727 24.269L24.4277 24.86L23.7597 25.027C23.5424 25.0807 23.3494 25.2058 23.2116 25.3822C23.0739 25.5586 22.9992 25.7762 22.9997 26V27H7.81573C7.57984 26.3328 7.11566 25.7705 6.50525 25.4124C5.89484 25.0543 5.17749 24.9235 4.48 25.0432C3.7825 25.1629 3.14977 25.5253 2.69363 26.0663C2.23748 26.6074 1.9873 27.2923 1.9873 28C1.9873 28.7077 2.23748 29.3926 2.69363 29.9337C3.14977 30.4747 3.7825 30.8371 4.48 30.9568C5.17749 31.0765 5.89484 30.9457 6.50525 30.5876C7.11566 30.2296 7.57984 29.6672 7.81573 29H22.9997V30C22.9998 30.2231 23.0744 30.4397 23.2118 30.6155C23.3491 30.7912 23.5413 30.916 23.7577 30.97L24.4257 31.137L24.0707 31.728C23.9562 31.9192 23.9089 32.1433 23.9362 32.3645C23.9636 32.5857 24.0641 32.7914 24.2217 32.949L24.9217 33.649L18.5847 40H10.8157C10.5798 39.3328 10.1157 38.7705 9.50525 38.4124C8.89484 38.0543 8.17749 37.9235 7.48 38.0432C6.7825 38.1629 6.14977 38.5253 5.69363 39.0663C5.23748 39.6074 4.9873 40.2923 4.9873 41C4.9873 41.7077 5.23748 42.3926 5.69363 42.9337C6.14977 43.4747 6.7825 43.8371 7.48 43.9568C8.17749 44.0765 8.89484 43.9457 9.50525 43.5876C10.1157 43.2296 10.5798 42.6672 10.8157 42H18.9997C19.1312 42.0001 19.2614 41.9743 19.3829 41.924C19.5044 41.8737 19.6148 41.8 19.7077 41.707L26.3387 35.067L27.0497 35.778C27.2074 35.9359 27.4133 36.0365 27.6347 36.0639C27.8562 36.0912 28.0804 36.0438 28.2717 35.929L28.8627 35.574L29.0297 36.242C29.0837 36.4584 29.2085 36.6506 29.3843 36.788C29.56 36.9253 29.7767 36.9999 29.9997 37H33.9997C34.2228 36.9999 34.4394 36.9253 34.6152 36.788C34.791 36.6506 34.9158 36.4584 34.9697 36.242L35.1367 35.574L35.7277 35.929C35.9191 36.0438 36.1433 36.0912 36.3647 36.0639C36.5862 36.0365 36.7921 35.9359 36.9497 35.778L37.6607 35.067L44.2917 41.707C44.3847 41.8 44.4951 41.8737 44.6166 41.924C44.738 41.9743 44.8683 42.0001 44.9997 42H53.1837C53.4196 42.6672 53.8838 43.2296 54.4942 43.5876C55.1046 43.9457 55.822 44.0765 56.5195 43.9568C57.217 43.8371 57.8497 43.4747 58.3058 42.9337C58.762 42.3926 59.0122 41.7077 59.0122 41C59.0122 40.2923 58.762 39.6074 58.3058 39.0663C57.8497 38.5253 57.217 38.1629 56.5195 38.0432C55.822 37.9235 55.1046 38.0543 54.4942 38.4124C53.8838 38.7705 53.4196 39.3328 53.1837 40H45.4147L39.0757 33.652L39.7757 32.952C39.9334 32.7944 40.0339 32.5887 40.0612 32.3675C40.0886 32.1463 40.0412 31.9222 39.9267 31.731L39.5717 31.14L40.2397 30.973C40.457 30.9193 40.65 30.7942 40.7878 30.6178C40.9256 30.4414 41.0002 30.2239 40.9997 30V29H56.1837C56.368 29.5172 56.6908 29.9738 57.117 30.3199C57.5431 30.666 58.0562 30.8883 58.6002 30.9625C59.1442 31.0367 59.6981 30.96 60.2014 30.7407C60.7047 30.5214 61.138 30.168 61.4541 29.7191C61.7701 29.2702 61.9567 28.743 61.9934 28.1952C62.0301 27.6475 61.9155 27.1001 61.6622 26.6131C61.4089 26.126 61.0266 25.7179 60.557 25.4334C60.0875 25.149 59.5487 24.999 58.9997 25ZM55.9997 14C56.1975 14 56.3909 14.0587 56.5553 14.1685C56.7197 14.2784 56.8479 14.4346 56.9236 14.6173C56.9993 14.8 57.0191 15.0011 56.9805 15.1951C56.9419 15.3891 56.8467 15.5673 56.7068 15.7071C56.567 15.847 56.3888 15.9422 56.1948 15.9808C56.0008 16.0194 55.7998 15.9996 55.6171 15.9239C55.4343 15.8482 55.2781 15.72 55.1683 15.5556C55.0584 15.3911 54.9997 15.1978 54.9997 15C54.9997 14.7348 55.1051 14.4804 55.2926 14.2929C55.4802 14.1054 55.7345 14 55.9997 14ZM7.99973 16C7.80195 16 7.60861 15.9414 7.44416 15.8315C7.27971 15.7216 7.15154 15.5654 7.07585 15.3827C7.00016 15.2 6.98036 14.9989 7.01895 14.8049C7.05753 14.6109 7.15277 14.4328 7.29263 14.2929C7.43248 14.153 7.61066 14.0578 7.80464 14.0192C7.99862 13.9806 8.19969 14.0004 8.38242 14.0761C8.56514 14.1518 8.72132 14.28 8.8312 14.4444C8.94108 14.6089 8.99973 14.8022 8.99973 15C8.99973 15.2652 8.89437 15.5196 8.70684 15.7071C8.5193 15.8946 8.26495 16 7.99973 16ZM4.99973 29C4.80195 29 4.60861 28.9414 4.44416 28.8315C4.27971 28.7216 4.15154 28.5654 4.07585 28.3827C4.00016 28.2 3.98036 27.9989 4.01895 27.8049C4.05753 27.6109 4.15277 27.4328 4.29263 27.2929C4.43248 27.153 4.61066 27.0578 4.80464 27.0192C4.99862 26.9806 5.19969 27.0004 5.38242 27.0761C5.56514 27.1518 5.72132 27.28 5.8312 27.4444C5.94108 27.6089 5.99973 27.8022 5.99973 28C5.99973 28.2652 5.89437 28.5196 5.70684 28.7071C5.5193 28.8946 5.26495 29 4.99973 29ZM7.99973 42C7.80195 42 7.60861 41.9414 7.44416 41.8315C7.27971 41.7216 7.15154 41.5654 7.07585 41.3827C7.00016 41.2 6.98036 40.9989 7.01895 40.8049C7.05753 40.6109 7.15277 40.4328 7.29263 40.2929C7.43248 40.153 7.61066 40.0578 7.80464 40.0192C7.99862 39.9806 8.19969 40.0004 8.38242 40.0761C8.56514 40.1518 8.72132 40.28 8.8312 40.4444C8.94108 40.6089 8.99973 40.8022 8.99973 41C8.99973 41.2652 8.89437 41.5196 8.70684 41.7071C8.5193 41.8946 8.26495 42 7.99973 42ZM55.9997 40C56.1975 40 56.3909 40.0587 56.5553 40.1685C56.7197 40.2784 56.8479 40.4346 56.9236 40.6173C56.9993 40.8 57.0191 41.0011 56.9805 41.1951C56.9419 41.3891 56.8467 41.5673 56.7068 41.7071C56.567 41.847 56.3888 41.9422 56.1948 41.9808C56.0008 42.0194 55.7998 41.9996 55.6171 41.9239C55.4343 41.8482 55.2781 41.72 55.1683 41.5556C55.0584 41.3911 54.9997 41.1978 54.9997 41C54.9997 40.7348 55.1051 40.4804 55.2926 40.2929C55.4802 40.1054 55.7345 40 55.9997 40ZM36.0867 33.813L35.0087 33.165C34.8748 33.0846 34.7238 33.0366 34.5679 33.0251C34.4121 33.0135 34.2557 33.0386 34.1113 33.0984C33.9669 33.1582 33.8386 33.251 33.7365 33.3694C33.6345 33.4877 33.5616 33.6284 33.5237 33.78L33.2237 35H30.7807L30.4807 33.78C30.4429 33.6284 30.37 33.4877 30.2679 33.3694C30.1659 33.251 30.0375 33.1582 29.8932 33.0984C29.7488 33.0386 29.5924 33.0135 29.4365 33.0251C29.2807 33.0366 29.1297 33.0846 28.9957 33.165L27.9177 33.813L26.1927 32.087L26.8397 31.009C26.9202 30.875 26.9681 30.7241 26.9797 30.5682C26.9912 30.4124 26.9661 30.256 26.9063 30.1116C26.8465 29.9672 26.7537 29.8388 26.6354 29.7368C26.517 29.6348 26.3764 29.5619 26.2247 29.524L25.0047 29.224V26.781L26.2247 26.481C26.3764 26.4431 26.517 26.3703 26.6354 26.2682C26.7537 26.1662 26.8465 26.0378 26.9063 25.8934C26.9661 25.749 26.9912 25.5927 26.9797 25.4368C26.9681 25.281 26.9202 25.13 26.8397 24.996L26.1927 23.918L27.9177 22.193L28.9957 22.84C29.1297 22.9205 29.2807 22.9684 29.4365 22.98C29.5924 22.9915 29.7488 22.9664 29.8932 22.9066C30.0375 22.8468 30.1659 22.754 30.2679 22.6356C30.37 22.5173 30.4429 22.3766 30.4807 22.225L30.7807 21.005H33.2187L33.5187 22.225C33.5566 22.3766 33.6295 22.5173 33.7315 22.6356C33.8336 22.754 33.9619 22.8468 34.1063 22.9066C34.2507 22.9664 34.4071 22.9915 34.5629 22.98C34.7188 22.9684 34.8698 22.9205 35.0037 22.84L36.0817 22.193L37.8067 23.918L37.1597 24.996C37.0793 25.13 37.0313 25.281 37.0198 25.4368C37.0082 25.5927 37.0333 25.749 37.0931 25.8934C37.1529 26.0378 37.2457 26.1662 37.3641 26.2682C37.4825 26.3703 37.6231 26.4431 37.7747 26.481L38.9947 26.781V29.219L37.7747 29.519C37.6231 29.5569 37.4825 29.6298 37.3641 29.7318C37.2457 29.8338 37.1529 29.9622 37.0931 30.1066C37.0333 30.251 37.0082 30.4074 37.0198 30.5632C37.0313 30.7191 37.0793 30.87 37.1597 31.004L37.8067 32.082L36.0867 33.813ZM58.9997 29C58.802 29 58.6086 28.9414 58.4442 28.8315C58.2797 28.7216 58.1515 28.5654 58.0759 28.3827C58.0002 28.2 57.9804 27.9989 58.0189 27.8049C58.0575 27.6109 58.1528 27.4328 58.2926 27.2929C58.4325 27.153 58.6107 27.0578 58.8046 27.0192C58.9986 26.9806 59.1997 27.0004 59.3824 27.0761C59.5651 27.1518 59.7213 27.28 59.8312 27.4444C59.9411 27.6089 59.9997 27.8022 59.9997 28C59.9997 28.2652 59.8944 28.5196 59.7068 28.7071C59.5193 28.8946 59.2649 29 58.9997 29Z" fill="#1971C2"/>
</g>
</g>
</svg>
