<svg width="64" height="64" viewBox="0 0 64 64" fill="none" xmlns="http://www.w3.org/2000/svg">
<g id="Frame">
<g id="Group">
<path id="Vector" d="M61 14.4375H2.33333C1.59733 14.4375 1 15.0348 1 15.7708V58.4375C1 59.1735 1.59733 59.7708 2.33333 59.7708H61C61.736 59.7708 62.3333 59.1735 62.3333 58.4375V15.7708C62.3333 15.0348 61.736 14.4375 61 14.4375Z" fill="#1971C2"/>
<path id="Vector_2" d="M10.333 41.1055C12.5421 41.1055 14.333 39.3146 14.333 37.1055C14.333 34.8963 12.5421 33.1055 10.333 33.1055C8.12387 33.1055 6.33301 34.8963 6.33301 37.1055C6.33301 39.3146 8.12387 41.1055 10.333 41.1055Z" fill="#FFD700"/>
<path id="Vector_3" d="M11.667 19.7715H9.00033C8.26433 19.7715 7.66699 20.3688 7.66699 21.1048V29.1048C7.66699 29.8408 8.26433 30.4382 9.00033 30.4382H11.667C12.403 30.4382 13.0003 29.8408 13.0003 29.1048V21.1048C13.0003 20.3688 12.403 19.7715 11.667 19.7715Z" fill="#FFD700"/>
<path id="Vector_4" d="M11.667 43.7715H9.00033C8.26433 43.7715 7.66699 44.3688 7.66699 45.1048V53.1048C7.66699 53.8408 8.26433 54.4382 9.00033 54.4382H11.667C12.403 54.4382 13.0003 53.8408 13.0003 53.1048V45.1048C13.0003 44.3688 12.403 43.7715 11.667 43.7715Z" fill="#FFD700"/>
<path id="Vector_5" d="M54.3337 54.4382H21.0003C20.2643 54.4382 19.667 53.8408 19.667 53.1048V21.1048C19.667 20.3688 20.2643 19.7715 21.0003 19.7715H54.3337C55.0697 19.7715 55.667 20.3688 55.667 21.1048V53.1048C55.667 53.8408 55.0697 54.4382 54.3337 54.4382Z" fill="white"/>
<path id="Vector_6" d="M29 34.4383C29 34.4383 29.8053 28.2997 31.6667 26.4383L53 5.105C54.4733 3.63167 56.86 3.63167 58.3333 5.105C59.8067 6.57833 59.8067 8.965 58.3333 10.4383L37 31.7717C35.1107 33.661 29 34.4383 29 34.4383Z" fill="#1971C2"/>
</g>
</g>
</svg>
