<svg width="64" height="64" viewBox="0 0 64 64" fill="none" xmlns="http://www.w3.org/2000/svg">
<g id="Layer_1">
<path id="Vector" d="M11.6711 40.9144H15.3247C15.5978 40.9144 15.8681 40.8607 16.1204 40.7562C16.3727 40.6517 16.6019 40.4985 16.795 40.3054C16.9881 40.1123 17.1412 39.8831 17.2457 39.6309C17.3502 39.3786 17.404 39.1082 17.404 38.8351C17.404 38.5621 17.3502 38.2917 17.2457 38.0394C17.1412 37.7872 16.9881 37.5579 16.795 37.3649C16.6019 37.1718 16.3727 37.0186 16.1204 36.9141C15.8681 36.8096 15.5978 36.7559 15.3247 36.7559H11.6711C11.1196 36.7559 10.5907 36.9749 10.2008 37.3649C9.81086 37.7548 9.5918 38.2837 9.5918 38.8351C9.5918 39.3866 9.81086 39.9155 10.2008 40.3054C10.5907 40.6954 11.1196 40.9144 11.6711 40.9144Z" fill="black"/>
<path id="Vector_2" d="M24.006 40.9144H27.6597C27.9327 40.9144 28.2031 40.8607 28.4554 40.7562C28.7076 40.6517 28.9369 40.4985 29.1299 40.3054C29.323 40.1123 29.4762 39.8831 29.5807 39.6309C29.6852 39.3786 29.7389 39.1082 29.7389 38.8351C29.7389 38.5621 29.6852 38.2917 29.5807 38.0394C29.4762 37.7872 29.323 37.5579 29.1299 37.3649C28.9369 37.1718 28.7076 37.0186 28.4554 36.9141C28.2031 36.8096 27.9327 36.7559 27.6597 36.7559H24.006C23.4546 36.7559 22.9257 36.9749 22.5358 37.3649C22.1458 37.7548 21.9268 38.2837 21.9268 38.8351C21.9268 39.3866 22.1458 39.9155 22.5358 40.3054C22.9257 40.6954 23.4546 40.9144 24.006 40.9144Z" fill="#FFD700"/>
<path id="Vector_3" d="M36.341 40.9144H39.9946C40.2677 40.9144 40.5381 40.8607 40.7903 40.7562C41.0426 40.6517 41.2718 40.4985 41.4649 40.3054C41.658 40.1123 41.8111 39.8831 41.9156 39.6309C42.0201 39.3786 42.0739 39.1082 42.0739 38.8351C42.0739 38.5621 42.0201 38.2917 41.9156 38.0394C41.8111 37.7872 41.658 37.5579 41.4649 37.3649C41.2718 37.1718 41.0426 37.0186 40.7903 36.9141C40.5381 36.8096 40.2677 36.7559 39.9946 36.7559H36.341C35.7895 36.7559 35.2607 36.9749 34.8707 37.3649C34.4808 37.7548 34.2617 38.2837 34.2617 38.8351C34.2617 39.3866 34.4808 39.9155 34.8707 40.3054C35.2607 40.6954 35.7895 40.9144 36.341 40.9144Z" fill="black"/>
<path id="Vector_4" d="M48.676 40.9144H52.3296C52.6026 40.9144 52.873 40.8607 53.1253 40.7562C53.3776 40.6517 53.6068 40.4985 53.7999 40.3054C53.9929 40.1123 54.1461 39.8831 54.2506 39.6309C54.3551 39.3786 54.4089 39.1082 54.4089 38.8351C54.4089 38.5621 54.3551 38.2917 54.2506 38.0394C54.1461 37.7872 53.9929 37.5579 53.7999 37.3649C53.6068 37.1718 53.3776 37.0186 53.1253 36.9141C52.873 36.8096 52.6026 36.7559 52.3296 36.7559H48.676C48.4029 36.7559 48.1325 36.8096 47.8803 36.9141C47.628 37.0186 47.3988 37.1718 47.2057 37.3649C47.0126 37.5579 46.8594 37.7872 46.755 38.0394C46.6505 38.2917 46.5967 38.5621 46.5967 38.8351C46.5967 39.1082 46.6505 39.3786 46.755 39.6309C46.8594 39.8831 47.0126 40.1123 47.2057 40.3054C47.3988 40.4985 47.628 40.6517 47.8803 40.7562C48.1325 40.8607 48.4029 40.9144 48.676 40.9144Z" fill="#FFD700"/>
<path id="Vector_5" d="M15.3901 44.0195H11.6057C10.4934 44.0195 9.5918 44.9212 9.5918 46.0334V46.1643C9.5918 47.2765 10.4934 48.1781 11.6057 48.1781H15.3901C16.5023 48.1781 17.404 47.2765 17.404 46.1643V46.0334C17.404 44.9212 16.5023 44.0195 15.3901 44.0195Z" fill="#FFD700"/>
<path id="Vector_6" d="M27.7251 44.0195H23.9406C22.8284 44.0195 21.9268 44.9212 21.9268 46.0334V46.1643C21.9268 47.2765 22.8284 48.1781 23.9406 48.1781H27.7251C28.8373 48.1781 29.7389 47.2765 29.7389 46.1643V46.0334C29.7389 44.9212 28.8373 44.0195 27.7251 44.0195Z" fill="black"/>
<path id="Vector_7" d="M40.06 44.0195H36.2756C35.1634 44.0195 34.2617 44.9212 34.2617 46.0334V46.1643C34.2617 47.2765 35.1634 48.1781 36.2756 48.1781H40.06C41.1723 48.1781 42.0739 47.2765 42.0739 46.1643V46.0334C42.0739 44.9212 41.1723 44.0195 40.06 44.0195Z" fill="#FFD700"/>
<path id="Vector_8" d="M52.395 44.0195H48.6105C47.4983 44.0195 46.5967 44.9212 46.5967 46.0334V46.1643C46.5967 47.2765 47.4983 48.1781 48.6105 48.1781H52.395C53.5072 48.1781 54.4089 47.2765 54.4089 46.1643V46.0334C54.4089 44.9212 53.5072 44.0195 52.395 44.0195Z" fill="black"/>
<path id="Vector_9" d="M24.006 55.4418H39.9947C40.5461 55.4418 41.075 55.2227 41.465 54.8328C41.8549 54.4428 42.074 53.914 42.074 53.3625C42.074 52.811 41.8549 52.2822 41.465 51.8922C41.075 51.5023 40.5461 51.2832 39.9947 51.2832H24.006C23.4546 51.2832 22.9257 51.5023 22.5358 51.8922C22.1458 52.2822 21.9268 52.811 21.9268 53.3625C21.9268 53.914 22.1458 54.4428 22.5358 54.8328C22.9257 55.2227 23.4546 55.4418 24.006 55.4418Z" fill="black"/>
<path id="Vector_10" d="M59.4247 29.7505H33.934C33.5338 27.7421 33.1628 23.6396 36.0564 21.2865C38.246 19.5059 40.9478 18.7593 43.8083 17.969C45.2298 17.5762 46.6998 17.17 48.1347 16.6236C54.6116 14.157 57.8766 8.82582 60.2163 3.93615C60.3112 3.73896 60.3662 3.52501 60.3783 3.30653C60.3903 3.08805 60.3592 2.86933 60.2866 2.66291C60.214 2.45648 60.1015 2.2664 59.9553 2.10353C59.8092 1.94067 59.6324 1.80822 59.435 1.71377C59.2376 1.61933 59.0236 1.56474 58.8051 1.55313C58.5866 1.54151 58.3679 1.57311 58.1616 1.64611C57.9554 1.7191 57.7655 1.83207 57.6029 1.97853C57.4404 2.12499 57.3083 2.30208 57.2142 2.49965C55.1585 6.79588 52.3315 11.4641 46.9502 13.5135C45.6621 14.0041 44.3311 14.3718 42.922 14.7612C39.8569 15.608 36.6874 16.4838 33.9566 18.7045C30.9956 21.1124 29.7825 25.0961 30.5512 29.7505H4.57611C4.13479 29.7505 3.71156 29.9258 3.3995 30.2379C3.08744 30.5499 2.91212 30.9732 2.91211 31.4145V60.7839C2.91212 61.2252 3.08744 61.6485 3.3995 61.9605C3.71156 62.2726 4.13479 62.4479 4.57611 62.4479H59.4247C59.866 62.4479 60.2893 62.2726 60.6013 61.9605C60.9134 61.6485 61.0887 61.2252 61.0887 60.7839V31.4145C61.0887 30.9732 60.9134 30.55 60.6013 30.2379C60.2893 29.9258 59.866 29.7505 59.4247 29.7505ZM57.7607 59.1199H6.24013V33.0785H57.7607L57.7607 59.1199Z" fill="#1971C2"/>
</g>
</svg>
