<svg width="56" height="44" viewBox="0 0 56 44" fill="none" xmlns="http://www.w3.org/2000/svg">
<g id="g2229">
<path id="path1377" d="M2.67706 0V32.28H0V37.2592C0 40.9296 2.99627 43.9259 6.66667 43.9259H49.3333C53.0037 43.9259 56 40.9296 56 37.2592V32.28H52.9688V0H2.67706ZM5.34373 2.66667H50.3011V7.0208H5.34373V2.66667ZM29.224 13.1667C30.0643 13.4566 30.9046 13.7465 31.7448 14.0365C29.9612 19.1885 28.2003 24.3482 26.4168 29.4999C25.5766 29.21 24.7363 28.9201 23.896 28.6301C25.6796 23.4781 27.4405 18.3184 29.224 13.1667ZM20.5208 16C21.2135 16.5573 21.9062 17.1146 22.5989 17.6719C21.6177 18.8921 20.6371 20.1128 19.6563 21.3332C20.6371 22.5537 21.6177 23.7745 22.5989 24.9945C21.9062 25.5518 21.2135 26.1091 20.5208 26.6664C19.0908 24.891 17.6667 23.1107 16.2395 21.3331C17.6667 19.5554 19.0907 17.7755 20.5208 16ZM35.1301 16.0052C36.5522 17.7838 37.9811 19.5572 39.4061 21.3332C37.9809 23.1094 36.5523 24.8825 35.1301 26.6612C34.4374 26.1039 33.7447 25.5466 33.052 24.9893C34.0318 23.7711 35.0104 22.5519 35.9896 21.3331C35.0105 20.1143 34.0319 18.895 33.052 17.6768C33.7447 17.1195 34.4374 16.5625 35.1301 16.0052ZM2.66614 34.9479H53.3328V37.2604C53.3328 39.4994 51.5719 41.2604 49.3328 41.2604H6.66614C4.42707 41.2604 2.66614 39.4994 2.66614 37.2604V34.9479Z" fill="#1971C2"/>
<path id="path1425" d="M24 36.6562V39.3229H32V36.6562H24Z" fill="#FFD700"/>
</g>
</svg>
