<svg width="64" height="64" viewBox="0 0 64 64" fill="none" xmlns="http://www.w3.org/2000/svg">
<g id="Frame">
<path id="Vector" d="M53 44C54.1046 44 55 43.1046 55 42C55 40.8954 54.1046 40 53 40C51.8954 40 51 40.8954 51 42C51 43.1046 51.8954 44 53 44Z" fill="#FFD700"/>
<path id="Vector_2" d="M26 11.3791L28.76 9.99914L26 8.61914V11.3791Z" fill="#FFD700"/>
<path id="Vector_3" d="M59 33H47C45.35 33 44 34.35 44 36V48C44 49.65 45.35 51 47 51H59C60.65 51 62 49.65 62 48V36C62 34.35 60.65 33 59 33ZM53 46C50.79 46 49 44.21 49 42C49 39.79 50.79 38 53 38C55.21 38 57 39.79 57 42C57 44.21 55.21 46 53 46Z" fill="#1971C2"/>
<path id="Vector_4" d="M59 2H47C45.35 2 44 3.35 44 5V17C44 18.65 45.35 20 47 20H59C60.65 20 62 18.65 62 17V5C62 3.35 60.65 2 59 2ZM56 8H54C53.45 8 53 8.45 53 9V10H54C54.55 10 55 10.45 55 11C55 11.55 54.55 12 54 12H53V15C53 15.55 52.55 16 52 16C51.45 16 51 15.55 51 15V12H50C49.45 12 49 11.55 49 11C49 10.45 49.45 10 50 10H51V9C51 7.35 52.35 6 54 6H56C56.55 6 57 6.45 57 7C57 7.55 56.55 8 56 8Z" fill="#1971C2"/>
<path id="Vector_5" d="M43.3999 22.2009L39.3999 25.2009C38.9599 25.5309 38.8699 26.1609 39.1999 26.6009C39.3999 26.8609 39.6999 27.0009 39.9999 27.0009C40.2099 27.0009 40.4199 26.9409 40.5999 26.8009L44.5999 23.8009C45.0399 23.4709 45.1299 22.8409 44.7999 22.4009C44.4699 21.9609 43.8399 21.8709 43.3999 22.2009Z" fill="#FFD700"/>
<path id="Vector_6" d="M42.0202 30.2002C42.1102 30.6702 42.5302 31.0002 43.0002 31.0002C43.0602 31.0002 43.1302 30.9902 43.2002 30.9802L48.2002 29.9802C48.7402 29.8702 49.0902 29.3502 48.9802 28.8002C48.8702 28.2602 48.3502 27.9102 47.8002 28.0202L42.8002 29.0202C42.2602 29.1302 41.9102 29.6502 42.0202 30.2002Z" fill="#FFD700"/>
<path id="Vector_7" d="M39.1999 17.4009L36.1999 21.4009C35.8699 21.8409 35.9599 22.4709 36.3999 22.8009C36.5799 22.9409 36.7899 23.0009 36.9999 23.0009C37.2999 23.0009 37.5999 22.8609 37.7999 22.6009L40.7999 18.6009C41.1299 18.1609 41.0399 17.5309 40.5999 17.2009C40.1599 16.8709 39.5299 16.9609 39.1999 17.4009Z" fill="#FFD700"/>
<path id="Vector_8" d="M36 10C36 5.04 31.96 1 27 1C22.04 1 18 5.04 18 10C18 14.96 22.04 19 27 19C31.96 19 36 14.96 36 10ZM25 14C24.82 14 24.63 13.95 24.47 13.85C24.18 13.67 24 13.35 24 13V7C24 6.65 24.18 6.33 24.47 6.15C24.77 5.97 25.14 5.95 25.45 6.11L31.45 9.11C31.79 9.27 32 9.62 32 10C32 10.38 31.79 10.73 31.45 10.89L25.45 13.89C25.31 13.96 25.15 14 25 14Z" fill="#1971C2"/>
<path id="Vector_9" d="M3 29H15C15.55 29 16 28.55 16 28V12C16 11.45 15.55 11 15 11H3C2.45 11 2 11.45 2 12V28C2 28.55 2.45 29 3 29ZM9 15H11C11.55 15 12 15.45 12 16C12 16.55 11.55 17 11 17H9C8.45 17 8 16.55 8 16C8 15.45 8.45 15 9 15ZM7 19H11C11.55 19 12 19.45 12 20C12 20.55 11.55 21 11 21H7C6.45 21 6 20.55 6 20C6 19.45 6.45 19 7 19ZM7 23H11C11.55 23 12 23.45 12 24C12 24.55 11.55 25 11 25H7C6.45 25 6 24.55 6 24C6 23.45 6.45 23 7 23Z" fill="#1971C2"/>
<path id="Vector_10" d="M7 61.9996H10H30H33C35.76 61.9996 38 59.7596 38 56.9996V54.9996C38 54.4496 37.55 53.9996 37 53.9996H35V40.8896L40.6 38.7896C40.88 38.6896 41.09 38.4696 41.19 38.1896C41.29 37.9196 41.26 37.6096 41.12 37.3596L33.12 23.4996C32.97 23.2496 32.72 23.0696 32.43 23.0196C32.14 22.9596 31.84 23.0396 31.61 23.2296L20.96 31.9996H6C5.45 31.9996 5 32.4496 5 32.9996V53.9996H3C2.45 53.9996 2 54.4496 2 54.9996V56.9996C2 59.7596 4.24 61.9996 7 61.9996ZM11 59.9996H9V58.9996C9 58.4496 9.45 57.9996 10 57.9996C10.55 57.9996 11 58.4496 11 58.9996V59.9996ZM31 59.9996H29V58.9996C29 58.4496 29.45 57.9996 30 57.9996C30.55 57.9996 31 58.4496 31 58.9996V59.9996ZM21.88 33.8296L22.04 33.6996L31.97 25.5196L38.79 37.3296L33.61 39.2696L23.6 43.0196L19.45 35.8296L21.88 33.8296ZM23.66 45.1296L25.66 48.5896C25.79 48.8196 25.83 49.0896 25.76 49.3496C25.69 49.5996 25.53 49.8196 25.29 49.9496C24.81 50.2296 24.2 50.0596 23.93 49.5896L21.93 46.1196L23.59 45.1596L23.66 45.1296ZM7 33.9996H18.53L17.6 34.7696L13.33 37.2296C11.72 38.1596 11 40.0496 11.48 41.7696L10.5 42.3296C9.81 42.7296 9.31 43.3796 9.1 44.1496C8.9 44.9296 9 45.7296 9.4 46.4296C9.8 47.1196 10.45 47.6196 11.22 47.8296C11.48 47.8996 11.74 47.9296 12 47.9296C12.52 47.9296 13.04 47.7896 13.5 47.5296L14.48 46.9596C14.97 47.4696 15.59 47.8396 16.29 48.0196C16.64 48.1196 16.99 48.1596 17.34 48.1596C18.03 48.1596 18.71 47.9796 19.33 47.6196L20.2 47.1196L22.2 50.5896C22.75 51.5496 23.76 52.0896 24.8 52.0896C25.31 52.0896 25.82 51.9596 26.29 51.6896C26.99 51.2896 27.49 50.6396 27.69 49.8596C27.9 49.0896 27.79 48.2796 27.39 47.5896L25.57 44.4196L33 41.6396V53.9996H7V33.9996ZM13.37 45.2896L12.5 45.7896C12.27 45.9296 12 45.9596 11.74 45.8896C11.48 45.8296 11.27 45.6596 11.13 45.4296C11 45.1996 10.96 44.9296 11.03 44.6696C11.1 44.4096 11.27 44.1996 11.5 44.0596L12.37 43.5596L13.37 45.2896Z" fill="#1971C2"/>
</g>
</svg>
