<svg width="10" height="10" viewBox="0 0 10 10" fill="none" xmlns="http://www.w3.org/2000/svg">
<g id="ant-design:apple-filled" clip-path="url(#clip0_1_4124)">
<path id="Vector" d="M7.27965 5.53645C7.27601 4.91575 7.55724 4.44795 8.12515 4.10301C7.80752 3.64796 7.32698 3.39767 6.69354 3.34944C6.09377 3.30211 5.43758 3.69892 5.19731 3.69892C4.94339 3.69892 4.36273 3.36582 3.90585 3.36582C2.96297 3.38038 1.96094 4.11758 1.96094 5.61745C1.96094 6.06067 2.04194 6.51846 2.20394 6.9899C2.42055 7.6106 3.20142 9.1314 4.01598 9.10683C4.44191 9.09682 4.74316 8.80467 5.29742 8.80467C5.8353 8.80467 6.1138 9.10683 6.58888 9.10683C7.41071 9.095 8.11696 7.71253 8.32265 7.09001C7.2205 6.57034 7.27965 5.5683 7.27965 5.53645ZM6.32312 2.76059C6.78455 2.2127 6.74269 1.71396 6.72903 1.53467C6.3213 1.55833 5.84986 1.81225 5.58138 2.12442C5.28559 2.45935 5.11176 2.87345 5.14907 3.34034C5.58957 3.37401 5.99184 3.14739 6.32312 2.76059Z" fill="#313131"/>
</g>
<defs>
<clipPath id="clip0_1_4124">
<rect width="9.31958" height="9.31958" fill="white" transform="translate(0.477539 0.660767)"/>
</clipPath>
</defs>
</svg>
