<svg width="64" height="64" viewBox="0 0 64 64" fill="none" xmlns="http://www.w3.org/2000/svg">
<path d="M47 32.0003C44.9181 31.9597 42.8618 32.4651 41.036 33.4663C38.8144 32.5056 36.4205 32.0068 34 32.0003H26C21.2277 32.0056 16.6524 33.9037 13.2779 37.2782C9.90342 40.6528 8.00529 45.228 8 50.0003V54.0003C8 55.5916 8.63214 57.1177 9.75736 58.243C10.8826 59.3682 12.4087 60.0003 14 60.0003H47C52.13 60.0003 56 57.4203 56 54.0003V38.0003C56 34.5803 52.13 32.0003 47 32.0003ZM52 46.0003C52 46.5803 50.248 48.0003 47 48.0003C43.752 48.0003 42 46.5803 42 46.0003V43.0403C45.2104 44.3204 48.7896 44.3204 52 43.0403V46.0003ZM27.236 56.0003L26.486 54.4983C26.2611 54.0504 26.2125 53.5343 26.35 53.0523L29.508 42.0003H30.492L33.65 53.0543C33.7881 53.5356 33.7396 54.0513 33.514 54.4983L32.764 56.0003H27.236ZM37.496 51.9563L34.136 40.2003L36.136 36.1843C36.8383 36.293 37.531 36.4561 38.208 36.6723C38.0711 37.1017 38.0009 37.5496 38 38.0003V54.0003C38.0117 54.6984 38.1885 55.3837 38.516 56.0003H37.2C37.7666 54.7279 37.8713 53.2977 37.496 51.9563ZM52 38.0003C52 38.5803 50.248 40.0003 47 40.0003C43.752 40.0003 42 38.5803 42 38.0003C42 37.4203 43.752 36.0003 47 36.0003C50.248 36.0003 52 37.4203 52 38.0003ZM31.764 36.0003L30.764 38.0003H29.236L28.236 36.0003H31.764ZM12 54.0003V50.0003C12.0039 46.662 13.2006 43.4351 15.3742 40.9014C17.5478 38.3677 20.5552 36.694 23.854 36.1823L25.864 40.2003L22.504 51.9543C22.1286 53.2963 22.2332 54.7273 22.8 56.0003H14C13.4696 56.0003 12.9609 55.7896 12.5858 55.4145C12.2107 55.0395 12 54.5308 12 54.0003ZM47 56.0003C43.752 56.0003 42 54.5803 42 54.0003V51.0403C45.2104 52.3204 48.7896 52.3204 52 51.0403V54.0003C52 54.5803 50.248 56.0003 47 56.0003Z" fill="#1971C2"/>
<path d="M44 18C44 15.2311 43.1789 12.5243 41.6406 10.222C40.1022 7.91973 37.9157 6.12532 35.3576 5.06569C32.7994 4.00607 29.9845 3.72882 27.2687 4.26901C24.553 4.80921 22.0584 6.14258 20.1005 8.10051C18.1426 10.0584 16.8092 12.553 16.269 15.2687C15.7288 17.9845 16.0061 20.7994 17.0657 23.3576C18.1253 25.9157 19.9197 28.1022 22.222 29.6406C24.5243 31.1789 27.2311 32 30 32C33.7117 31.9958 37.2702 30.5194 39.8948 27.8948C42.5194 25.2702 43.9958 21.7117 44 18ZM30 8.00001C31.596 8.01139 33.1655 8.40942 34.574 9.16001C33.2646 10.6813 31.6417 11.9015 29.8166 12.7369C27.9914 13.5723 26.0072 14.0032 24 14C23.0036 13.989 22.0112 13.871 21.04 13.648C21.8528 11.9605 23.1242 10.5358 24.7087 9.53702C26.2933 8.5382 28.1269 8.00555 30 8.00001ZM30 28C27.3488 27.9968 24.8071 26.9422 22.9324 25.0676C21.0578 23.1929 20.0032 20.6512 20 18C20 17.844 20.04 17.698 20.046 17.542C21.3429 17.8413 22.6691 17.995 24 18C26.6036 18.0051 29.1769 17.4423 31.5407 16.3508C33.9044 15.2593 36.0016 13.6653 37.686 11.68C39.1714 13.452 39.9901 15.6878 40 18C39.9968 20.6512 38.9422 23.1929 37.0676 25.0676C35.1929 26.9422 32.6512 27.9968 30 28Z" fill="#1971C2"/>
</svg>
