<svg width="32" height="32" viewBox="0 0 32 32" fill="none" xmlns="http://www.w3.org/2000/svg">
<g clip-path="url(#clip0_13_1414)">
<path d="M31.7928 11.9823C30.9258 12.8493 27.5869 10.9165 24.3352 7.66482C21.0836 4.41314 19.1507 1.07431 20.0178 0.207248C20.8849 -0.659813 24.2237 1.27301 27.4754 4.52469C30.7271 7.77637 32.6599 11.1153 31.7928 11.9823Z" fill="#0935A3"/>
<path d="M0 32.0001L7.06514 21.7949L10.2052 24.9351L0 32.0001Z" fill="#D9DBE8"/>
<path d="M24.3352 7.66461C21.0835 4.41293 19.1507 1.07409 20.0178 0.207031C16.8743 3.3505 17.551 7.94543 20.8027 11.1971C24.0543 14.4488 28.4534 15.3214 31.5962 12.1785L31.5468 12.1269C30.4106 12.5404 27.3382 10.6676 24.3352 7.66461Z" fill="#1971C2"/>
<path d="M21.5103 17.5547L25.1955 13.8695C23.649 13.4465 22.1303 12.5246 20.8031 11.1974C19.4753 9.86957 18.5861 8.31812 18.202 6.7334L14.4463 10.4886L11.3828 13.552C11.7675 15.1374 12.8027 16.5423 14.1305 17.8695C15.4577 19.1973 16.9015 20.1942 18.448 20.6172L21.5103 17.5547Z" fill="#0935A3"/>
<path d="M21.5103 17.5547L25.1955 13.8695C23.649 13.4465 22.1303 12.5246 20.8031 11.1974C19.4753 9.86957 18.5861 8.31812 18.202 6.7334L14.4463 10.4886L11.3828 13.552C11.7675 15.1374 12.8027 16.5423 14.1305 17.8695C15.4577 19.1973 16.9015 20.1942 18.448 20.6172L21.5103 17.5547Z" fill="#0935A3"/>
<path d="M19.576 24.5222C19.7237 23.1712 19.475 21.7412 18.8322 20.2325L18.4475 20.6177C16.901 20.1942 15.4573 19.1972 14.1301 17.87C12.8023 16.5428 11.7671 15.1373 11.3824 13.5526L11.7748 13.1601L11.7576 13.1424C10.2395 12.4918 8.8012 12.2404 7.44235 12.3891C4.91726 12.6644 3.41353 15.2739 4.4471 17.5947C5.23367 19.3599 6.68351 21.4137 8.61747 23.3476C10.5508 25.281 12.6052 26.7314 14.3703 27.5174C16.6907 28.551 19.3002 27.0472 19.576 24.5222Z" fill="#1971C2"/>
</g>
<defs>
<clipPath id="clip0_13_1414">
<rect width="32" height="32" fill="white"/>
</clipPath>
</defs>
</svg>
