<svg width="64" height="64" viewBox="0 0 64 64" fill="none" xmlns="http://www.w3.org/2000/svg">
<path d="M14.7298 35.9048L14.6348 36.0873H51.3673L51.2723 35.9048C49.8171 33.1064 47.6209 30.7618 44.9235 29.1269C42.2261 27.4921 39.1314 26.63 35.9773 26.6348H30.0248C26.8707 26.63 23.7759 27.4921 21.0785 29.1269C18.3812 30.7618 16.1849 33.1064 14.7298 35.9048Z" fill="#EFFAFE"/>
<path d="M55.0473 37.0879H10.9523C10.6579 37.0894 10.3674 37.1558 10.1016 37.2826C9.83587 37.4093 9.60136 37.5931 9.41485 37.8209C9.22834 38.0488 9.09443 38.315 9.02269 38.6005C8.95094 38.8861 8.94313 39.184 8.99981 39.4729L12.3923 56.8079C12.4816 57.2628 12.7261 57.6726 13.084 57.9672C13.442 58.2618 13.8912 58.4229 14.3548 58.4229H51.6573C52.1209 58.4229 52.5701 58.2618 52.9281 57.9672C53.2861 57.6726 53.5306 57.2628 53.6198 56.8079L56.9998 39.4729C57.0565 39.184 57.0487 38.8861 56.9769 38.6005C56.9052 38.315 56.7713 38.0488 56.5848 37.8209C56.3983 37.5931 56.1638 37.4093 55.898 37.2826C55.6322 37.1558 55.3417 37.0894 55.0473 37.0879Z" fill="#40BDFF"/>
<path d="M34.1651 25.6353C37.0591 25.337 39.7281 23.9388 41.6209 21.7293C43.5137 19.5199 44.4858 16.668 44.3364 13.7625C44.1871 10.857 42.9277 8.11975 40.8183 6.11604C38.709 4.11232 35.9107 2.99512 33.0014 2.99512C30.092 2.99512 27.2938 4.11232 25.1844 6.11604C23.0751 8.11975 21.8157 10.857 21.6663 13.7625C21.517 16.668 22.4891 19.5199 24.3819 21.7293C26.2747 23.9388 28.9436 25.337 31.8376 25.6353H34.1651Z" fill="#EFFAFE"/>
<path d="M51.2701 35.9048C49.8149 33.1064 47.6187 30.7618 44.9213 29.1269C42.224 27.4921 39.1292 26.63 35.9751 26.6348H33.4751C36.6292 26.63 39.724 27.4921 42.4213 29.1269C45.1187 30.7618 47.3149 33.1064 48.7701 35.9048L48.8651 36.0873H51.3651L51.2701 35.9048Z" fill="#E4EBED"/>
<path d="M55.0473 37.0879H52.5473C52.8426 37.0879 53.1342 37.1533 53.4012 37.2794C53.6682 37.4055 53.904 37.5891 54.0916 37.8171C54.2792 38.0451 54.414 38.3118 54.4863 38.5981C54.5586 38.8844 54.5666 39.1831 54.5098 39.4729L51.1173 56.8104C51.028 57.2653 50.7835 57.6751 50.4256 57.9697C50.0676 58.2643 49.6184 58.4254 49.1548 58.4254H51.6548C52.1184 58.4254 52.5676 58.2643 52.9256 57.9697C53.2835 57.6751 53.528 57.2653 53.6173 56.8104L56.9998 39.4729C57.0565 39.184 57.0487 38.8861 56.9769 38.6005C56.9052 38.315 56.7713 38.0488 56.5848 37.8209C56.3982 37.5931 56.1637 37.4093 55.898 37.2826C55.6322 37.1558 55.3417 37.0894 55.0473 37.0879Z" fill="#2197F7"/>
<path d="M33 3C32.5824 3.00044 32.1651 3.02381 31.75 3.07C34.526 3.37701 37.0912 4.69724 38.9545 6.77787C40.8177 8.85849 41.8479 11.5533 41.8479 14.3462C41.8479 17.1392 40.8177 19.834 38.9545 21.9146C37.0912 23.9953 34.526 25.3155 31.75 25.6225H31.84H34.1675C37.0387 25.2976 39.6778 23.8895 41.5465 21.6856C43.4152 19.4816 44.3728 16.6478 44.2238 13.7621C44.0749 10.8764 42.8307 8.15626 40.7451 6.1564C38.6594 4.15653 35.8894 3.02765 33 3Z" fill="#E4EBED"/>
<path d="M12.445 35.9629H9.94498C9.48368 35.9628 9.02808 36.0648 8.61089 36.2617C8.19369 36.4585 7.82525 36.7453 7.53201 37.1014C7.23877 37.4575 7.028 37.8741 6.91483 38.3213C6.80166 38.7685 6.78891 39.2352 6.87748 39.6879L10.2775 57.0254C10.418 57.736 10.8004 58.376 11.3597 58.8364C11.919 59.2968 12.6206 59.5491 13.345 59.5504H50.6575C51.382 59.5496 52.0838 59.2974 52.6432 58.837C53.2026 58.3765 53.5849 57.7363 53.725 57.0254L57.1175 39.6904C57.206 39.2377 57.1933 38.771 57.0801 38.3238C56.967 37.8766 56.7562 37.4599 56.4629 37.1039C56.1697 36.7478 55.8013 36.461 55.3841 36.2642C54.9669 36.0673 54.5113 35.9653 54.05 35.9654H51.55C50.2178 33.1888 48.2109 30.7905 45.7129 28.9894C43.2148 27.1884 40.3052 26.0421 37.25 25.6554C39.8269 24.4596 41.9184 22.4199 43.1785 19.8737C44.4385 17.3276 44.7916 14.4276 44.1793 11.6535C43.5671 8.87935 42.0261 6.39738 39.8113 4.61818C37.5966 2.83897 34.8409 1.86914 32 1.86914C29.1591 1.86914 26.4033 2.83897 24.1886 4.61818C21.9739 6.39738 20.4329 8.87935 19.8206 11.6535C19.2083 14.4276 19.5614 17.3276 20.8215 19.8737C22.0815 22.4199 24.173 24.4596 26.75 25.6554C23.694 26.0408 20.7835 27.1863 18.2845 28.9869C15.7855 30.7876 13.7778 33.186 12.445 35.9629ZM54.0475 37.2129C54.3242 37.2129 54.5975 37.2742 54.8478 37.3923C55.098 37.5104 55.319 37.6825 55.4949 37.8962C55.6708 38.1098 55.7972 38.3597 55.8651 38.628C55.933 38.8963 55.9406 39.1763 55.8875 39.4479L52.5 56.7854C52.4161 57.2119 52.1868 57.596 51.8512 57.8723C51.5157 58.1486 51.0946 58.2999 50.66 58.3004H13.3425C12.9074 58.3005 12.4858 58.1494 12.1497 57.8731C11.8136 57.5968 11.584 57.2123 11.5 56.7854L8.11248 39.4479C8.05934 39.1763 8.06699 38.8963 8.13486 38.628C8.20273 38.3597 8.32915 38.1098 8.50504 37.8962C8.68093 37.6825 8.90193 37.5104 9.15218 37.3923C9.40244 37.2742 9.67574 37.2129 9.95248 37.2129H54.0475ZM20.7775 14.3479C20.7755 12.1772 21.4031 10.0525 22.5842 8.23133C23.7653 6.41012 25.4493 4.97052 27.432 4.08698C29.4147 3.20343 31.6111 2.91385 33.7551 3.25333C35.8991 3.59281 37.8986 4.54677 39.5113 5.99963C41.1241 7.4525 42.2809 9.3419 42.8416 11.4389C43.4023 13.5359 43.3428 15.7505 42.6704 17.8144C41.9979 19.8783 40.7413 21.7029 39.0529 23.0671C37.3644 24.4313 35.3166 25.2765 33.1575 25.5004H30.8425C28.0854 25.2084 25.5332 23.9085 23.6757 21.8503C21.8182 19.792 20.7861 17.1204 20.7775 14.3479ZM29.0275 26.7604H34.975C38.1044 26.7646 41.1732 27.6241 43.8496 29.246C46.5259 30.868 48.708 33.1906 50.16 35.9629H13.84C15.2906 33.1888 17.4721 30.8641 20.1485 29.2403C22.825 27.6165 25.8945 26.7555 29.025 26.7504L29.0275 26.7604Z" fill="#263238"/>
<path d="M57.0876 60.875H6.9126C6.74684 60.875 6.58787 60.9408 6.47066 61.0581C6.35345 61.1753 6.2876 61.3342 6.2876 61.5C6.2876 61.6658 6.35345 61.8247 6.47066 61.9419C6.58787 62.0592 6.74684 62.125 6.9126 62.125H57.0876C57.2534 62.125 57.4123 62.0592 57.5295 61.9419C57.6468 61.8247 57.7126 61.6658 57.7126 61.5C57.7126 61.3342 57.6468 61.1753 57.5295 61.0581C57.4123 60.9408 57.2534 60.875 57.0876 60.875Z" fill="#263238"/>
<path d="M19.5376 3.04785V4.04785H18.5376C18.4713 4.04785 18.4077 4.07419 18.3608 4.12107C18.3139 4.16796 18.2876 4.23155 18.2876 4.29785C18.2876 4.36416 18.3139 4.42774 18.3608 4.47463C18.4077 4.52151 18.4713 4.54785 18.5376 4.54785H19.5376V5.54785C19.5376 5.61416 19.5639 5.67774 19.6108 5.72463C19.6577 5.77151 19.7213 5.79785 19.7876 5.79785C19.8539 5.79785 19.9175 5.77151 19.9644 5.72463C20.0113 5.67774 20.0376 5.61416 20.0376 5.54785V4.54785H21.0376C21.1039 4.54785 21.1675 4.52151 21.2144 4.47463C21.2613 4.42774 21.2876 4.36416 21.2876 4.29785C21.2876 4.23155 21.2613 4.16796 21.2144 4.12107C21.1675 4.07419 21.1039 4.04785 21.0376 4.04785H20.0376V3.04785C20.0376 2.98155 20.0113 2.91796 19.9644 2.87107C19.9175 2.82419 19.8539 2.79785 19.7876 2.79785C19.7213 2.79785 19.6577 2.82419 19.6108 2.87107C19.5639 2.91796 19.5376 2.98155 19.5376 3.04785Z" fill="#FFDD00"/>
<path d="M56.5 29.5977V30.5977H55.5C55.4337 30.5977 55.3701 30.624 55.3232 30.6709C55.2763 30.7178 55.25 30.7814 55.25 30.8477C55.25 30.914 55.2763 30.9775 55.3232 31.0244C55.3701 31.0713 55.4337 31.0977 55.5 31.0977H56.5V32.0977C56.5 32.164 56.5263 32.2275 56.5732 32.2744C56.6201 32.3213 56.6837 32.3477 56.75 32.3477C56.8163 32.3477 56.8799 32.3213 56.9268 32.2744C56.9737 32.2275 57 32.164 57 32.0977V31.0977H58C58.0663 31.0977 58.1299 31.0713 58.1768 31.0244C58.2237 30.9775 58.25 30.914 58.25 30.8477C58.25 30.7814 58.2237 30.7178 58.1768 30.6709C58.1299 30.624 58.0663 30.5977 58 30.5977H57V29.5977C57 29.5314 56.9737 29.4678 56.9268 29.4209C56.8799 29.374 56.8163 29.3477 56.75 29.3477C56.6837 29.3477 56.6201 29.374 56.5732 29.4209C56.5263 29.4678 56.5 29.5314 56.5 29.5977Z" fill="#FFDD00"/>
<path d="M10.75 25.3848V26.3848H9.75C9.6837 26.3848 9.62011 26.4111 9.57322 26.458C9.52634 26.5049 9.5 26.5685 9.5 26.6348C9.5 26.7011 9.52634 26.7647 9.57322 26.8115C9.62011 26.8584 9.6837 26.8848 9.75 26.8848H10.75V27.8848C10.75 27.9511 10.7763 28.0147 10.8232 28.0615C10.8701 28.1084 10.9337 28.1348 11 28.1348C11.0663 28.1348 11.1299 28.1084 11.1768 28.0615C11.2237 28.0147 11.25 27.9511 11.25 27.8848V26.8848H12.25C12.3163 26.8848 12.3799 26.8584 12.4268 26.8115C12.4737 26.7647 12.5 26.7011 12.5 26.6348C12.5 26.5685 12.4737 26.5049 12.4268 26.458C12.3799 26.4111 12.3163 26.3848 12.25 26.3848H11.25V25.3848C11.25 25.3185 11.2237 25.2549 11.1768 25.208C11.1299 25.1611 11.0663 25.1348 11 25.1348C10.9337 25.1348 10.8701 25.1611 10.8232 25.208C10.7763 25.2549 10.75 25.3185 10.75 25.3848Z" fill="#FFDD00"/>
<path d="M7.63477 12C7.63477 12.2967 7.54679 12.5867 7.38197 12.8334C7.21715 13.08 6.98288 13.2723 6.70879 13.3858C6.4347 13.4994 6.1331 13.5291 5.84213 13.4712C5.55116 13.4133 5.28388 13.2704 5.07411 13.0607C4.86433 12.8509 4.72147 12.5836 4.66359 12.2926C4.60571 12.0017 4.63542 11.7001 4.74895 11.426C4.86248 11.1519 5.05474 10.9176 5.30141 10.7528C5.54808 10.588 5.83809 10.5 6.13477 10.5C6.53259 10.5 6.91412 10.658 7.19543 10.9393C7.47673 11.2206 7.63477 11.6022 7.63477 12ZM5.13477 12C5.13477 12.1978 5.19342 12.3911 5.3033 12.5556C5.41318 12.72 5.56936 12.8482 5.75208 12.9239C5.93481 12.9996 6.13588 13.0194 6.32986 12.9808C6.52384 12.9422 6.70202 12.847 6.84187 12.7071C6.98173 12.5673 7.07697 12.3891 7.11555 12.1951C7.15414 12.0011 7.13433 11.8 7.05865 11.6173C6.98296 11.4346 6.85479 11.2784 6.69034 11.1685C6.52589 11.0586 6.33255 11 6.13477 11C5.86955 11 5.6152 11.1054 5.42766 11.2929C5.24012 11.4804 5.13477 11.7348 5.13477 12Z" fill="#40BDFF"/>
<path d="M59.7349 49.3223C59.7349 49.6189 59.6469 49.909 59.4821 50.1556C59.3172 50.4023 59.083 50.5946 58.8089 50.7081C58.5348 50.8216 58.2332 50.8513 57.9422 50.7934C57.6513 50.7356 57.384 50.5927 57.1742 50.3829C56.9644 50.1731 56.8216 49.9059 56.7637 49.6149C56.7058 49.3239 56.7355 49.0223 56.849 48.7482C56.9626 48.4742 57.1548 48.2399 57.4015 48.0751C57.6482 47.9102 57.9382 47.8223 58.2349 47.8223C58.6327 47.8223 59.0142 47.9803 59.2955 48.2616C59.5768 48.5429 59.7349 48.9244 59.7349 49.3223ZM57.2349 49.3223C57.2349 49.52 57.2935 49.7134 57.4034 49.8778C57.5133 50.0423 57.6695 50.1705 57.8522 50.2461C58.0349 50.3218 58.236 50.3416 58.43 50.3031C58.6239 50.2645 58.8021 50.1692 58.942 50.0294C59.0818 49.8895 59.1771 49.7113 59.2157 49.5174C59.2542 49.3234 59.2344 49.1223 59.1587 48.9396C59.0831 48.7569 58.9549 48.6007 58.7904 48.4908C58.626 48.3809 58.4326 48.3223 58.2349 48.3223C57.9696 48.3223 57.7153 48.4276 57.5278 48.6152C57.3402 48.8027 57.2349 49.057 57.2349 49.3223Z" fill="#40BDFF"/>
</svg>
