<svg id="Layer_2" data-name="Layer 2" xmlns="http://www.w3.org/2000/svg" viewBox="0 0 1670.55 1771"><defs><style>.cls-1{fill:#7560a9;}.cls-2{fill:#fff;}</style></defs><title>Logo</title><path class="cls-1" d="M1551.28,1008.18c158.75-65.41,264.3-222,264.3-394.73,0-181.41-112.65-340.75-282-401.58a401.56,401.56,0,0,1,17.7,796.31Z" transform="translate(-224.07 -156.06)"/><path class="cls-2" d="M1549.88,215.94a399.59,399.59,0,0,1,17.39,787.47c151-69.22,250.31-222,250.31-390,0-176.61-106.29-332.42-267.7-397.51m-32.56-7.45c171.78,54.44,296.26,215.16,296.26,405,0,183.11-115.88,339.17-278.31,398.82,202.07-22,359.35-193.18,359.35-401.11,0-214.06-166.67-389.17-377.3-402.67Z" transform="translate(-224.07 -156.06)"/><path class="cls-1" d="M1465.75,905.25c122.68-120.11,161.89-304.82,97.18-465-65.53-162.2-220.89-267-395.78-267-5.37,0-10.77.1-16.17.31a401.56,401.56,0,0,1,314.77,731.68Z" transform="translate(-224.07 -156.06)"/><path class="cls-2" d="M1261.13,160.06a399.64,399.64,0,0,1,217.65,734.78c114.07-120.74,148.93-299.58,86-455.33C1499,276.68,1343.09,171.42,1167.53,171.26a396.85,396.85,0,0,1,93.59-11.2h0m0-4a401.9,401.9,0,0,0-126.41,20.45q16.27-1.26,32.46-1.25c168,0,327.11,100.39,393.92,265.75,68.6,169.78,19.62,357.88-108.64,474,179.13-96.08,260.82-313.73,182.93-506.51-63.48-157.12-214.62-252.48-374.26-252.47Z" transform="translate(-224.07 -156.06)"/><path class="cls-1" d="M1347.88,841.86c68.76-157.32,35.92-343.27-84.08-467.54-81.15-84-190.19-130.31-307-130.31A429.27,429.27,0,0,0,782,281.37a401.55,401.55,0,0,1,565.93,560.49Z" transform="translate(-224.07 -156.06)"/><path class="cls-2" d="M1028.8,194.56v4a399.58,399.58,0,0,1,327.27,628.76c60.53-154.68,25.86-333.55-90.83-454.39C1183.71,288.51,1074.17,242,956.76,242a431.41,431.41,0,0,0-160.42,31.08,398.26,398.26,0,0,1,232.42-74.53l0-4m0,0A402.1,402.1,0,0,0,768,290.2a425.08,425.08,0,0,1,494.41,85.51c127.2,131.72,152.26,324.48,76.85,480.22,130.09-156.19,124.3-388.59-20.14-538.16a402.26,402.26,0,0,0-290.31-123.21Z" transform="translate(-224.07 -156.06)"/><path class="cls-1" d="M1214.86,827.24c4.81-171.63-95.29-331.73-253.11-402a426.47,426.47,0,0,0-481.57,94.3,401.56,401.56,0,0,1,734.68,307.7Z" transform="translate(-224.07 -156.06)"/><path class="cls-2" d="M827.93,321.11A399.73,399.73,0,0,1,1217,810.69c-1.83-166.09-101-319-254.43-387.28A428.49,428.49,0,0,0,490.5,506.36,399.94,399.94,0,0,1,827.92,321.11h0m0-4c-146.23,0-286.15,79.95-357.42,215.89A424.46,424.46,0,0,1,960.94,427.07c167.28,74.48,262.72,243.81,251.14,416.46C1274.19,650,1181.76,436.67,991.81,352.1a402,402,0,0,0-163.9-35Z" transform="translate(-224.07 -156.06)"/><path class="cls-1" d="M1086,863.51C1026.21,702.58,873.42,591.63,700.77,585.6c-5-.17-10.13-.26-15.16-.26-174.51,0-331.6,107.07-396,268.1A401.6,401.6,0,0,1,686.9,508.28c4.73,0,9.53.08,14.27.25a401.6,401.6,0,0,1,384.87,355Z" transform="translate(-224.07 -156.06)"/><path class="cls-2" d="M686.93,506.28v4c4.69,0,9.46.08,14.17.25a399.64,399.64,0,0,1,380.72,336.84c-63.9-153.31-213.1-257.9-381-263.77-5.05-.17-10.18-.26-15.23-.26-169.73,0-323,100.79-391.39,254A399.65,399.65,0,0,1,686.9,510.28l0-4m0,0c-207.6,0-380.88,158-401.25,363.26,58.79-165.25,216.65-282.2,400-282.2q7.51,0,15.09.26c183,6.39,334.93,127.65,388.87,292.06C1074.65,676.94,909,513.78,701.24,506.53c-4.8-.17-9.57-.25-14.34-.25Z" transform="translate(-224.07 -156.06)"/><path class="cls-1" d="M238,1234.39a401.56,401.56,0,0,1,742.22-289A426.32,426.32,0,0,0,518.87,832.05C348.4,894.1,237.2,1054.45,238,1234.39Z" transform="translate(-224.07 -156.06)"/><path class="cls-2" d="M627.68,734.12v4A400,400,0,0,1,970.19,931.94a428.29,428.29,0,0,0-452-101.77c-166,60.41-276,213.57-282,387.51A399.86,399.86,0,0,1,627.66,738.12l0-4m0,0a402.75,402.75,0,0,0-138,24.44C288.54,831.77,181,1048.28,240.34,1250.82c-7.6-180,100.85-352,279.21-416.89a424.33,424.33,0,0,1,470,125.12C920.66,819.19,778.38,734.11,627.66,734.12Z" transform="translate(-224.07 -156.06)"/><path class="cls-1" d="M332.79,1607a401.56,401.56,0,0,1,579.94-546,427.1,427.1,0,0,0-470.2,67.71C307.72,1250.08,264.68,1440.42,332.79,1607Z" transform="translate(-224.07 -156.06)"/><path class="cls-2" d="M657.82,971.85a398.74,398.74,0,0,1,240.7,80.48,429.07,429.07,0,0,0-457.33,74.88c-131.25,118.18-175.91,301.42-116.28,464.93a399.55,399.55,0,0,1,332.9-620.29h0m0-4a402,402,0,0,0-269.86,103.64c-159.07,143.23-177.69,384.27-46.78,549.82-74.49-164.08-38.34-364.12,102.71-491.13a425.08,425.08,0,0,1,482.61-60A402.51,402.51,0,0,0,657.8,967.85Z" transform="translate(-224.07 -156.06)"/><path class="cls-1" d="M560.3,1916.9a401.53,401.53,0,0,1,333.18-723.48c-8.91-.56-17.86-.84-26.75-.84-164.64,0-311.72,91.87-383.85,239.76C403.36,1595.39,434.75,1788,560.3,1916.9Z" transform="translate(-224.07 -156.06)"/><path class="cls-2" d="M773.8,1177A396,396,0,0,1,877,1190.7q-5.16-.12-10.31-.12c-165.41,0-313.18,92.29-385.65,240.88-77.42,158.74-50.19,345.37,66.35,474.63A399.6,399.6,0,0,1,773.8,1177h0m0-4c-149.43,0-293,83.36-363,226.71C317,1592.14,390,1822.59,573.42,1927.06c-130.52-124.23-171.95-323.25-88.74-493.84,73.59-150.89,224.75-238.65,382.05-238.64a423.21,423.21,0,0,1,42.92,2.18A400.85,400.85,0,0,0,773.79,1173Z" transform="translate(-224.07 -156.06)"/></svg>